<?xml version="1.0" encoding="UTF-8" standalone="no"?>
<!DOCTYPE svg PUBLIC "-//W3C//DTD SVG 1.1//EN"
 "http://www.w3.org/Graphics/SVG/1.1/DTD/svg11.dtd">
<!-- Generated by graphviz version 2.44.0 ()
 -->
<!-- Title: include/cppgc/internal/api&#45;constants.h Pages: 1 -->
<svg width="571pt" height="486pt"
 viewBox="0.00 0.00 571.00 486.00" xmlns="http://www.w3.org/2000/svg" xmlns:xlink="http://www.w3.org/1999/xlink">
<g id="graph0" class="graph" transform="scale(1 1) rotate(0) translate(4 482)">
<title>include/cppgc/internal/api&#45;constants.h</title>
<polygon fill="white" stroke="transparent" points="-4,4 -4,-482 567,-482 567,4 -4,4"/>
<!-- Node1 -->
<g id="node1" class="node">
<title>Node1</title>
<g id="a_node1"><a xlink:title=" ">
<polygon fill="#bfbfbf" stroke="black" points="160.5,-447.5 160.5,-477.5 271.5,-477.5 271.5,-447.5 160.5,-447.5"/>
<text text-anchor="start" x="168.5" y="-465.5" font-family="Helvetica,sans-Serif" font-size="10.00">include/cppgc/internal</text>
<text text-anchor="middle" x="216" y="-454.5" font-family="Helvetica,sans-Serif" font-size="10.00">/api&#45;constants.h</text>
</a>
</g>
</g>
<!-- Node2 -->
<g id="node2" class="node">
<title>Node2</title>
<g id="a_node2"><a xlink:href="garbage-collected_8h.html" target="_top" xlink:title=" ">
<polygon fill="white" stroke="black" points="94,-380.5 94,-410.5 208,-410.5 208,-380.5 94,-380.5"/>
<text text-anchor="start" x="102" y="-398.5" font-family="Helvetica,sans-Serif" font-size="10.00">include/cppgc/garbage</text>
<text text-anchor="middle" x="151" y="-387.5" font-family="Helvetica,sans-Serif" font-size="10.00">&#45;collected.h</text>
</a>
</g>
</g>
<!-- Node1&#45;&gt;Node2 -->
<g id="edge1" class="edge">
<title>Node1&#45;&gt;Node2</title>
<path fill="none" stroke="midnightblue" d="M194.81,-440.31C185.06,-430.56 173.76,-419.26 165.08,-410.58"/>
<polygon fill="midnightblue" stroke="midnightblue" points="192.35,-442.8 201.9,-447.4 197.3,-437.85 192.35,-442.8"/>
</g>
<!-- Node3 -->
<g id="node3" class="node">
<title>Node3</title>
<g id="a_node3"><a xlink:href="allocation_8h.html" target="_top" xlink:title=" ">
<polygon fill="white" stroke="black" points="0,-319 0,-338 128,-338 128,-319 0,-319"/>
<text text-anchor="middle" x="64" y="-326" font-family="Helvetica,sans-Serif" font-size="10.00">include/cppgc/allocation.h</text>
</a>
</g>
</g>
<!-- Node1&#45;&gt;Node3 -->
<g id="edge8" class="edge">
<title>Node1&#45;&gt;Node3</title>
<path fill="none" stroke="midnightblue" d="M150.52,-449.38C126.92,-441.95 101.95,-430.04 85,-411 66.34,-390.05 63.86,-354.68 63.78,-338.31"/>
<polygon fill="midnightblue" stroke="midnightblue" points="149.6,-452.76 160.18,-452.2 151.56,-446.04 149.6,-452.76"/>
</g>
<!-- Node8 -->
<g id="node8" class="node">
<title>Node8</title>
<g id="a_node8"><a xlink:href="write-barrier_8h.html" target="_top" xlink:title=" ">
<polygon fill="white" stroke="black" points="226.5,-380.5 226.5,-410.5 337.5,-410.5 337.5,-380.5 226.5,-380.5"/>
<text text-anchor="start" x="234.5" y="-398.5" font-family="Helvetica,sans-Serif" font-size="10.00">include/cppgc/internal</text>
<text text-anchor="middle" x="282" y="-387.5" font-family="Helvetica,sans-Serif" font-size="10.00">/write&#45;barrier.h</text>
</a>
</g>
</g>
<!-- Node1&#45;&gt;Node8 -->
<g id="edge9" class="edge">
<title>Node1&#45;&gt;Node8</title>
<path fill="none" stroke="midnightblue" d="M237.51,-440.31C247.41,-430.56 258.89,-419.26 267.71,-410.58"/>
<polygon fill="midnightblue" stroke="midnightblue" points="234.99,-437.89 230.32,-447.4 239.9,-442.87 234.99,-437.89"/>
</g>
<!-- Node14 -->
<g id="node14" class="node">
<title>Node14</title>
<g id="a_node14"><a xlink:href="caged-heap-local-data_8h.html" target="_top" xlink:title=" ">
<polygon fill="white" stroke="black" points="356,-380.5 356,-410.5 478,-410.5 478,-380.5 356,-380.5"/>
<text text-anchor="start" x="364" y="-398.5" font-family="Helvetica,sans-Serif" font-size="10.00">include/cppgc/internal</text>
<text text-anchor="middle" x="417" y="-387.5" font-family="Helvetica,sans-Serif" font-size="10.00">/caged&#45;heap&#45;local&#45;data.h</text>
</a>
</g>
</g>
<!-- Node1&#45;&gt;Node14 -->
<g id="edge21" class="edge">
<title>Node1&#45;&gt;Node14</title>
<path fill="none" stroke="midnightblue" d="M269.41,-444.23C301.93,-433.71 342.94,-420.45 373.47,-410.58"/>
<polygon fill="midnightblue" stroke="midnightblue" points="268.05,-440.99 259.61,-447.4 270.21,-447.65 268.05,-440.99"/>
</g>
<!-- Node2&#45;&gt;Node3 -->
<g id="edge2" class="edge">
<title>Node2&#45;&gt;Node3</title>
<path fill="none" stroke="midnightblue" d="M124.02,-374.34C107.78,-362.21 87.94,-347.39 75.64,-338.19"/>
<polygon fill="midnightblue" stroke="midnightblue" points="122.02,-377.21 132.12,-380.4 126.21,-371.61 122.02,-377.21"/>
</g>
<!-- Node4 -->
<g id="node4" class="node">
<title>Node4</title>
<g id="a_node4"><a xlink:href="visitor_8h.html" target="_top" xlink:title=" ">
<polygon fill="white" stroke="black" points="295.5,-129 295.5,-148 408.5,-148 408.5,-129 295.5,-129"/>
<text text-anchor="middle" x="352" y="-136" font-family="Helvetica,sans-Serif" font-size="10.00">include/cppgc/visitor.h</text>
</a>
</g>
</g>
<!-- Node2&#45;&gt;Node4 -->
<g id="edge3" class="edge">
<title>Node2&#45;&gt;Node4</title>
<path fill="none" stroke="midnightblue" d="M158.19,-370.46C167.62,-341.57 186.17,-292.56 213,-257 222.99,-243.76 310.13,-173.17 341.12,-148.24"/>
<polygon fill="midnightblue" stroke="midnightblue" points="154.82,-369.54 155.14,-380.13 161.49,-371.65 154.82,-369.54"/>
</g>
<!-- Node5 -->
<g id="node5" class="node">
<title>Node5</title>
<g id="a_node5"><a xlink:href="persistent_8h.html" target="_top" xlink:title=" ">
<polygon fill="white" stroke="black" points="433,-67.5 433,-86.5 563,-86.5 563,-67.5 433,-67.5"/>
<text text-anchor="middle" x="498" y="-74.5" font-family="Helvetica,sans-Serif" font-size="10.00">include/cppgc/persistent.h</text>
</a>
</g>
</g>
<!-- Node4&#45;&gt;Node5 -->
<g id="edge4" class="edge">
<title>Node4&#45;&gt;Node5</title>
<path fill="none" stroke="midnightblue" d="M382.35,-125.13C410.71,-113.57 452.31,-96.62 477.12,-86.51"/>
<polygon fill="midnightblue" stroke="midnightblue" points="380.86,-121.96 372.92,-128.98 383.5,-128.44 380.86,-121.96"/>
</g>
<!-- Node6 -->
<g id="node6" class="node">
<title>Node6</title>
<g id="a_node6"><a xlink:href="cross-thread-persistent_8h.html" target="_top" xlink:title=" ">
<polygon fill="white" stroke="black" points="353,-0.5 353,-30.5 457,-30.5 457,-0.5 353,-0.5"/>
<text text-anchor="start" x="361" y="-18.5" font-family="Helvetica,sans-Serif" font-size="10.00">include/cppgc/cross</text>
<text text-anchor="middle" x="405" y="-7.5" font-family="Helvetica,sans-Serif" font-size="10.00">&#45;thread&#45;persistent.h</text>
</a>
</g>
</g>
<!-- Node4&#45;&gt;Node6 -->
<g id="edge6" class="edge">
<title>Node4&#45;&gt;Node6</title>
<path fill="none" stroke="midnightblue" d="M365.41,-120.64C372.38,-111.2 380.55,-98.95 386,-87 394.47,-68.43 399.8,-45.33 402.59,-30.75"/>
<polygon fill="midnightblue" stroke="midnightblue" points="362.52,-118.66 359.23,-128.73 368.08,-122.91 362.52,-118.66"/>
</g>
<!-- Node7 -->
<g id="node7" class="node">
<title>Node7</title>
<g id="a_node7"><a xlink:href="v8-cppgc_8h.html" target="_top" xlink:title=" ">
<polygon fill="white" stroke="black" points="279,-67.5 279,-86.5 377,-86.5 377,-67.5 279,-67.5"/>
<text text-anchor="middle" x="328" y="-74.5" font-family="Helvetica,sans-Serif" font-size="10.00">include/v8&#45;cppgc.h</text>
</a>
</g>
</g>
<!-- Node4&#45;&gt;Node7 -->
<g id="edge7" class="edge">
<title>Node4&#45;&gt;Node7</title>
<path fill="none" stroke="midnightblue" d="M344.74,-119.5C340.32,-108.55 334.89,-95.07 331.43,-86.51"/>
<polygon fill="midnightblue" stroke="midnightblue" points="341.57,-121.01 348.56,-128.98 348.07,-118.39 341.57,-121.01"/>
</g>
<!-- Node5&#45;&gt;Node6 -->
<g id="edge5" class="edge">
<title>Node5&#45;&gt;Node6</title>
<path fill="none" stroke="midnightblue" d="M476.13,-62.01C461.3,-52.52 441.76,-40.02 426.92,-30.52"/>
<polygon fill="midnightblue" stroke="midnightblue" points="474.37,-65.03 484.68,-67.48 478.14,-59.14 474.37,-65.03"/>
</g>
<!-- Node9 -->
<g id="node9" class="node">
<title>Node9</title>
<g id="a_node9"><a xlink:href="pointer-policies_8h.html" target="_top" xlink:title=" ">
<polygon fill="white" stroke="black" points="227.5,-313.5 227.5,-343.5 338.5,-343.5 338.5,-313.5 227.5,-313.5"/>
<text text-anchor="start" x="235.5" y="-331.5" font-family="Helvetica,sans-Serif" font-size="10.00">include/cppgc/internal</text>
<text text-anchor="middle" x="283" y="-320.5" font-family="Helvetica,sans-Serif" font-size="10.00">/pointer&#45;policies.h</text>
</a>
</g>
</g>
<!-- Node8&#45;&gt;Node9 -->
<g id="edge10" class="edge">
<title>Node8&#45;&gt;Node9</title>
<path fill="none" stroke="midnightblue" d="M282.38,-370.11C282.51,-361.15 282.66,-351.32 282.78,-343.58"/>
<polygon fill="midnightblue" stroke="midnightblue" points="278.87,-370.34 282.22,-380.4 285.87,-370.45 278.87,-370.34"/>
</g>
<!-- Node9&#45;&gt;Node4 -->
<g id="edge13" class="edge">
<title>Node9&#45;&gt;Node4</title>
<path fill="none" stroke="midnightblue" d="M322.97,-308.12C334.83,-300.23 346.41,-289.88 353,-277 375.4,-233.22 361.1,-170.86 354.66,-148.18"/>
<polygon fill="midnightblue" stroke="midnightblue" points="321.02,-305.21 314.34,-313.44 324.69,-311.17 321.02,-305.21"/>
</g>
<!-- Node9&#45;&gt;Node5 -->
<g id="edge12" class="edge">
<title>Node9&#45;&gt;Node5</title>
<path fill="none" stroke="midnightblue" d="M324.11,-308.82C339.62,-300.51 356.7,-289.71 370,-277 434.16,-215.71 481.17,-116.18 494.3,-86.57"/>
<polygon fill="midnightblue" stroke="midnightblue" points="322.49,-305.72 315.21,-313.42 325.7,-311.94 322.49,-305.72"/>
</g>
<!-- Node9&#45;&gt;Node6 -->
<g id="edge11" class="edge">
<title>Node9&#45;&gt;Node6</title>
<path fill="none" stroke="midnightblue" d="M230.7,-309.5C191.89,-293.07 141.76,-264.61 118,-221 85.26,-160.9 74,-119.42 118,-67 147.4,-31.98 278.35,-21.24 352.8,-17.95"/>
<polygon fill="midnightblue" stroke="midnightblue" points="229.72,-312.88 240.3,-313.43 232.37,-306.4 229.72,-312.88"/>
</g>
<!-- Node10 -->
<g id="node10" class="node">
<title>Node10</title>
<g id="a_node10"><a xlink:href="member_8h.html" target="_top" xlink:title=" ">
<polygon fill="white" stroke="black" points="222,-257.5 222,-276.5 344,-276.5 344,-257.5 222,-257.5"/>
<text text-anchor="middle" x="283" y="-264.5" font-family="Helvetica,sans-Serif" font-size="10.00">include/cppgc/member.h</text>
</a>
</g>
</g>
<!-- Node9&#45;&gt;Node10 -->
<g id="edge14" class="edge">
<title>Node9&#45;&gt;Node10</title>
<path fill="none" stroke="midnightblue" d="M283,-303.29C283,-293.86 283,-283.65 283,-276.66"/>
<polygon fill="midnightblue" stroke="midnightblue" points="279.5,-303.4 283,-313.4 286.5,-303.4 279.5,-303.4"/>
</g>
<!-- Node10&#45;&gt;Node4 -->
<g id="edge20" class="edge">
<title>Node10&#45;&gt;Node4</title>
<path fill="none" stroke="midnightblue" d="M292.6,-248.4C307.58,-220.94 335.96,-168.9 347.22,-148.26"/>
<polygon fill="midnightblue" stroke="midnightblue" points="289.46,-246.85 287.74,-257.31 295.6,-250.2 289.46,-246.85"/>
</g>
<!-- Node11 -->
<g id="node11" class="node">
<title>Node11</title>
<g id="a_node11"><a xlink:href="liveness-broker_8h.html" target="_top" xlink:title=" ">
<polygon fill="white" stroke="black" points="127,-190.5 127,-220.5 243,-220.5 243,-190.5 127,-190.5"/>
<text text-anchor="start" x="135" y="-208.5" font-family="Helvetica,sans-Serif" font-size="10.00">include/cppgc/liveness</text>
<text text-anchor="middle" x="185" y="-197.5" font-family="Helvetica,sans-Serif" font-size="10.00">&#45;broker.h</text>
</a>
</g>
</g>
<!-- Node10&#45;&gt;Node11 -->
<g id="edge15" class="edge">
<title>Node10&#45;&gt;Node11</title>
<path fill="none" stroke="midnightblue" d="M260.4,-252.28C244.71,-242.75 223.89,-230.11 208.1,-220.52"/>
<polygon fill="midnightblue" stroke="midnightblue" points="258.59,-255.28 268.96,-257.48 262.23,-249.29 258.59,-255.28"/>
</g>
<!-- Node11&#45;&gt;Node4 -->
<g id="edge16" class="edge">
<title>Node11&#45;&gt;Node4</title>
<path fill="none" stroke="midnightblue" d="M230.93,-186.62C263.26,-174.04 305.07,-157.77 330.14,-148.01"/>
<polygon fill="midnightblue" stroke="midnightblue" points="229.29,-183.51 221.24,-190.4 231.83,-190.03 229.29,-183.51"/>
</g>
<!-- Node12 -->
<g id="node12" class="node">
<title>Node12</title>
<g id="a_node12"><a xlink:href="prefinalizer-handler_8h.html" target="_top" xlink:title=" ">
<polygon fill="white" stroke="black" points="127.5,-123.5 127.5,-153.5 238.5,-153.5 238.5,-123.5 127.5,-123.5"/>
<text text-anchor="start" x="135.5" y="-141.5" font-family="Helvetica,sans-Serif" font-size="10.00">include/cppgc/internal</text>
<text text-anchor="middle" x="183" y="-130.5" font-family="Helvetica,sans-Serif" font-size="10.00">/prefinalizer&#45;handler.h</text>
</a>
</g>
</g>
<!-- Node11&#45;&gt;Node12 -->
<g id="edge17" class="edge">
<title>Node11&#45;&gt;Node12</title>
<path fill="none" stroke="midnightblue" d="M184.25,-180.11C183.97,-171.15 183.67,-161.32 183.43,-153.58"/>
<polygon fill="midnightblue" stroke="midnightblue" points="180.76,-180.51 184.57,-190.4 187.76,-180.29 180.76,-180.51"/>
</g>
<!-- Node13 -->
<g id="node13" class="node">
<title>Node13</title>
<g id="a_node13"><a xlink:href="prefinalizer_8h.html" target="_top" xlink:title=" ">
<polygon fill="white" stroke="black" points="127.5,-67.5 127.5,-86.5 260.5,-86.5 260.5,-67.5 127.5,-67.5"/>
<text text-anchor="middle" x="194" y="-74.5" font-family="Helvetica,sans-Serif" font-size="10.00">include/cppgc/prefinalizer.h</text>
</a>
</g>
</g>
<!-- Node11&#45;&gt;Node13 -->
<g id="edge19" class="edge">
<title>Node11&#45;&gt;Node13</title>
<path fill="none" stroke="midnightblue" d="M220.08,-184.54C230.74,-176.54 241.17,-166.27 247,-154 252.91,-141.56 252.79,-135.5 247,-123 239.5,-106.79 222.96,-94.28 210.33,-86.61"/>
<polygon fill="midnightblue" stroke="midnightblue" points="217.77,-181.88 211.56,-190.47 221.77,-187.63 217.77,-181.88"/>
</g>
<!-- Node12&#45;&gt;Node13 -->
<g id="edge18" class="edge">
<title>Node12&#45;&gt;Node13</title>
<path fill="none" stroke="midnightblue" d="M187.48,-113.29C189.22,-103.86 191.11,-93.65 192.4,-86.66"/>
<polygon fill="midnightblue" stroke="midnightblue" points="183.98,-112.93 185.61,-123.4 190.87,-114.2 183.98,-112.93"/>
</g>
</g>
</svg>
