<?xml version="1.0" encoding="UTF-8" standalone="no"?>
<!DOCTYPE svg PUBLIC "-//W3C//DTD SVG 1.1//EN"
 "http://www.w3.org/Graphics/SVG/1.1/DTD/svg11.dtd">
<!-- Generated by graphviz version 2.44.0 ()
 -->
<!-- Title: include/cppgc/internal/atomic&#45;entry&#45;flag.h Pages: 1 -->
<svg width="473pt" height="553pt"
 viewBox="0.00 0.00 472.50 553.00" xmlns="http://www.w3.org/2000/svg" xmlns:xlink="http://www.w3.org/1999/xlink">
<g id="graph0" class="graph" transform="scale(1 1) rotate(0) translate(4 549)">
<title>include/cppgc/internal/atomic&#45;entry&#45;flag.h</title>
<polygon fill="white" stroke="transparent" points="-4,4 -4,-549 468.5,-549 468.5,4 -4,4"/>
<!-- Node1 -->
<g id="node1" class="node">
<title>Node1</title>
<g id="a_node1"><a xlink:title=" ">
<polygon fill="#bfbfbf" stroke="black" points="56.5,-514.5 56.5,-544.5 167.5,-544.5 167.5,-514.5 56.5,-514.5"/>
<text text-anchor="start" x="64.5" y="-532.5" font-family="Helvetica,sans-Serif" font-size="10.00">include/cppgc/internal</text>
<text text-anchor="middle" x="112" y="-521.5" font-family="Helvetica,sans-Serif" font-size="10.00">/atomic&#45;entry&#45;flag.h</text>
</a>
</g>
</g>
<!-- Node2 -->
<g id="node2" class="node">
<title>Node2</title>
<g id="a_node2"><a xlink:href="process-heap_8h.html" target="_top" xlink:title=" ">
<polygon fill="white" stroke="black" points="56.5,-447.5 56.5,-477.5 167.5,-477.5 167.5,-447.5 56.5,-447.5"/>
<text text-anchor="start" x="64.5" y="-465.5" font-family="Helvetica,sans-Serif" font-size="10.00">include/cppgc/internal</text>
<text text-anchor="middle" x="112" y="-454.5" font-family="Helvetica,sans-Serif" font-size="10.00">/process&#45;heap.h</text>
</a>
</g>
</g>
<!-- Node1&#45;&gt;Node2 -->
<g id="edge1" class="edge">
<title>Node1&#45;&gt;Node2</title>
<path fill="none" stroke="midnightblue" d="M112,-504.11C112,-495.15 112,-485.32 112,-477.58"/>
<polygon fill="midnightblue" stroke="midnightblue" points="108.5,-504.4 112,-514.4 115.5,-504.4 108.5,-504.4"/>
</g>
<!-- Node3 -->
<g id="node3" class="node">
<title>Node3</title>
<g id="a_node3"><a xlink:href="write-barrier_8h.html" target="_top" xlink:title=" ">
<polygon fill="white" stroke="black" points="56.5,-380.5 56.5,-410.5 167.5,-410.5 167.5,-380.5 56.5,-380.5"/>
<text text-anchor="start" x="64.5" y="-398.5" font-family="Helvetica,sans-Serif" font-size="10.00">include/cppgc/internal</text>
<text text-anchor="middle" x="112" y="-387.5" font-family="Helvetica,sans-Serif" font-size="10.00">/write&#45;barrier.h</text>
</a>
</g>
</g>
<!-- Node2&#45;&gt;Node3 -->
<g id="edge2" class="edge">
<title>Node2&#45;&gt;Node3</title>
<path fill="none" stroke="midnightblue" d="M112,-437.11C112,-428.15 112,-418.32 112,-410.58"/>
<polygon fill="midnightblue" stroke="midnightblue" points="108.5,-437.4 112,-447.4 115.5,-437.4 108.5,-437.4"/>
</g>
<!-- Node4 -->
<g id="node4" class="node">
<title>Node4</title>
<g id="a_node4"><a xlink:href="pointer-policies_8h.html" target="_top" xlink:title=" ">
<polygon fill="white" stroke="black" points="56.5,-313.5 56.5,-343.5 167.5,-343.5 167.5,-313.5 56.5,-313.5"/>
<text text-anchor="start" x="64.5" y="-331.5" font-family="Helvetica,sans-Serif" font-size="10.00">include/cppgc/internal</text>
<text text-anchor="middle" x="112" y="-320.5" font-family="Helvetica,sans-Serif" font-size="10.00">/pointer&#45;policies.h</text>
</a>
</g>
</g>
<!-- Node3&#45;&gt;Node4 -->
<g id="edge3" class="edge">
<title>Node3&#45;&gt;Node4</title>
<path fill="none" stroke="midnightblue" d="M112,-370.11C112,-361.15 112,-351.32 112,-343.58"/>
<polygon fill="midnightblue" stroke="midnightblue" points="108.5,-370.4 112,-380.4 115.5,-370.4 108.5,-370.4"/>
</g>
<!-- Node5 -->
<g id="node5" class="node">
<title>Node5</title>
<g id="a_node5"><a xlink:href="cross-thread-persistent_8h.html" target="_top" xlink:title=" ">
<polygon fill="white" stroke="black" points="41,-0.5 41,-30.5 145,-30.5 145,-0.5 41,-0.5"/>
<text text-anchor="start" x="49" y="-18.5" font-family="Helvetica,sans-Serif" font-size="10.00">include/cppgc/cross</text>
<text text-anchor="middle" x="93" y="-7.5" font-family="Helvetica,sans-Serif" font-size="10.00">&#45;thread&#45;persistent.h</text>
</a>
</g>
</g>
<!-- Node4&#45;&gt;Node5 -->
<g id="edge4" class="edge">
<title>Node4&#45;&gt;Node5</title>
<path fill="none" stroke="midnightblue" d="M75.69,-307.99C42.98,-287.48 0,-251.9 0,-206.5 0,-206.5 0,-206.5 0,-137.5 0,-105.05 0.21,-93.46 19,-67 30.08,-51.4 47.59,-39.14 62.8,-30.6"/>
<polygon fill="midnightblue" stroke="midnightblue" points="74.23,-311.2 84.6,-313.37 77.85,-305.21 74.23,-311.2"/>
</g>
<!-- Node6 -->
<g id="node6" class="node">
<title>Node6</title>
<g id="a_node6"><a xlink:href="persistent_8h.html" target="_top" xlink:title=" ">
<polygon fill="white" stroke="black" points="28,-67.5 28,-86.5 158,-86.5 158,-67.5 28,-67.5"/>
<text text-anchor="middle" x="93" y="-74.5" font-family="Helvetica,sans-Serif" font-size="10.00">include/cppgc/persistent.h</text>
</a>
</g>
</g>
<!-- Node4&#45;&gt;Node6 -->
<g id="edge5" class="edge">
<title>Node4&#45;&gt;Node6</title>
<path fill="none" stroke="midnightblue" d="M110.16,-303.36C106.06,-249.56 96.34,-121.81 93.68,-86.93"/>
<polygon fill="midnightblue" stroke="midnightblue" points="106.67,-303.67 110.92,-313.37 113.65,-303.13 106.67,-303.67"/>
</g>
<!-- Node7 -->
<g id="node7" class="node">
<title>Node7</title>
<g id="a_node7"><a xlink:href="visitor_8h.html" target="_top" xlink:title=" ">
<polygon fill="white" stroke="black" points="128.5,-129 128.5,-148 241.5,-148 241.5,-129 128.5,-129"/>
<text text-anchor="middle" x="185" y="-136" font-family="Helvetica,sans-Serif" font-size="10.00">include/cppgc/visitor.h</text>
</a>
</g>
</g>
<!-- Node4&#45;&gt;Node7 -->
<g id="edge7" class="edge">
<title>Node4&#45;&gt;Node7</title>
<path fill="none" stroke="midnightblue" d="M121.15,-303.93C137.48,-261.88 170.91,-175.79 181.62,-148.21"/>
<polygon fill="midnightblue" stroke="midnightblue" points="117.84,-302.78 117.49,-313.37 124.37,-305.31 117.84,-302.78"/>
</g>
<!-- Node9 -->
<g id="node9" class="node">
<title>Node9</title>
<g id="a_node9"><a xlink:href="member_8h.html" target="_top" xlink:title=" ">
<polygon fill="white" stroke="black" points="159,-257.5 159,-276.5 281,-276.5 281,-257.5 159,-257.5"/>
<text text-anchor="middle" x="220" y="-264.5" font-family="Helvetica,sans-Serif" font-size="10.00">include/cppgc/member.h</text>
</a>
</g>
</g>
<!-- Node4&#45;&gt;Node9 -->
<g id="edge11" class="edge">
<title>Node4&#45;&gt;Node9</title>
<path fill="none" stroke="midnightblue" d="M146.48,-308.51C165.89,-297.81 189.19,-284.97 204.29,-276.66"/>
<polygon fill="midnightblue" stroke="midnightblue" points="144.66,-305.51 137.59,-313.4 148.04,-311.64 144.66,-305.51"/>
</g>
<!-- Node6&#45;&gt;Node5 -->
<g id="edge6" class="edge">
<title>Node6&#45;&gt;Node5</title>
<path fill="none" stroke="midnightblue" d="M93,-57.23C93,-48.59 93,-38.5 93,-30.52"/>
<polygon fill="midnightblue" stroke="midnightblue" points="89.5,-57.48 93,-67.48 96.5,-57.48 89.5,-57.48"/>
</g>
<!-- Node7&#45;&gt;Node5 -->
<g id="edge9" class="edge">
<title>Node7&#45;&gt;Node5</title>
<path fill="none" stroke="midnightblue" d="M183.83,-118.69C182.08,-103.55 177.74,-82.34 167,-67 156.03,-51.33 138.51,-39.06 123.28,-30.54"/>
<polygon fill="midnightblue" stroke="midnightblue" points="180.36,-119.23 184.72,-128.89 187.33,-118.62 180.36,-119.23"/>
</g>
<!-- Node7&#45;&gt;Node6 -->
<g id="edge8" class="edge">
<title>Node7&#45;&gt;Node6</title>
<path fill="none" stroke="midnightblue" d="M163.24,-123.43C145.51,-111.96 121.04,-96.13 106.16,-86.51"/>
<polygon fill="midnightblue" stroke="midnightblue" points="161.52,-126.48 171.82,-128.98 165.32,-120.61 161.52,-126.48"/>
</g>
<!-- Node8 -->
<g id="node8" class="node">
<title>Node8</title>
<g id="a_node8"><a xlink:href="v8-cppgc_8h.html" target="_top" xlink:title=" ">
<polygon fill="white" stroke="black" points="214,-67.5 214,-86.5 312,-86.5 312,-67.5 214,-67.5"/>
<text text-anchor="middle" x="263" y="-74.5" font-family="Helvetica,sans-Serif" font-size="10.00">include/v8&#45;cppgc.h</text>
</a>
</g>
</g>
<!-- Node7&#45;&gt;Node8 -->
<g id="edge10" class="edge">
<title>Node7&#45;&gt;Node8</title>
<path fill="none" stroke="midnightblue" d="M204.28,-122.79C219.24,-111.38 239.46,-95.96 251.85,-86.51"/>
<polygon fill="midnightblue" stroke="midnightblue" points="202,-120.13 196.18,-128.98 206.25,-125.69 202,-120.13"/>
</g>
<!-- Node9&#45;&gt;Node7 -->
<g id="edge17" class="edge">
<title>Node9&#45;&gt;Node7</title>
<path fill="none" stroke="midnightblue" d="M214.83,-247.31C207.16,-219.58 193.06,-168.63 187.42,-148.26"/>
<polygon fill="midnightblue" stroke="midnightblue" points="211.55,-248.6 217.59,-257.31 218.3,-246.73 211.55,-248.6"/>
</g>
<!-- Node10 -->
<g id="node10" class="node">
<title>Node10</title>
<g id="a_node10"><a xlink:href="liveness-broker_8h.html" target="_top" xlink:title=" ">
<polygon fill="white" stroke="black" points="246,-190.5 246,-220.5 362,-220.5 362,-190.5 246,-190.5"/>
<text text-anchor="start" x="254" y="-208.5" font-family="Helvetica,sans-Serif" font-size="10.00">include/cppgc/liveness</text>
<text text-anchor="middle" x="304" y="-197.5" font-family="Helvetica,sans-Serif" font-size="10.00">&#45;broker.h</text>
</a>
</g>
</g>
<!-- Node9&#45;&gt;Node10 -->
<g id="edge12" class="edge">
<title>Node9&#45;&gt;Node10</title>
<path fill="none" stroke="midnightblue" d="M240.52,-251.47C253.82,-242.05 271.05,-229.84 284.2,-220.52"/>
<polygon fill="midnightblue" stroke="midnightblue" points="238.17,-248.84 232.04,-257.48 242.22,-254.55 238.17,-248.84"/>
</g>
<!-- Node10&#45;&gt;Node7 -->
<g id="edge13" class="edge">
<title>Node10&#45;&gt;Node7</title>
<path fill="none" stroke="midnightblue" d="M269.17,-185.47C246.45,-173.06 217.9,-157.47 200.57,-148.01"/>
<polygon fill="midnightblue" stroke="midnightblue" points="267.72,-188.67 278.18,-190.4 271.08,-182.53 267.72,-188.67"/>
</g>
<!-- Node11 -->
<g id="node11" class="node">
<title>Node11</title>
<g id="a_node11"><a xlink:href="prefinalizer-handler_8h.html" target="_top" xlink:title=" ">
<polygon fill="white" stroke="black" points="259.5,-123.5 259.5,-153.5 370.5,-153.5 370.5,-123.5 259.5,-123.5"/>
<text text-anchor="start" x="267.5" y="-141.5" font-family="Helvetica,sans-Serif" font-size="10.00">include/cppgc/internal</text>
<text text-anchor="middle" x="315" y="-130.5" font-family="Helvetica,sans-Serif" font-size="10.00">/prefinalizer&#45;handler.h</text>
</a>
</g>
</g>
<!-- Node10&#45;&gt;Node11 -->
<g id="edge14" class="edge">
<title>Node10&#45;&gt;Node11</title>
<path fill="none" stroke="midnightblue" d="M308.08,-180.4C309.61,-171.37 311.29,-161.41 312.62,-153.58"/>
<polygon fill="midnightblue" stroke="midnightblue" points="304.6,-179.95 306.39,-190.4 311.51,-181.12 304.6,-179.95"/>
</g>
<!-- Node12 -->
<g id="node12" class="node">
<title>Node12</title>
<g id="a_node12"><a xlink:href="prefinalizer_8h.html" target="_top" xlink:title=" ">
<polygon fill="white" stroke="black" points="331.5,-67.5 331.5,-86.5 464.5,-86.5 464.5,-67.5 331.5,-67.5"/>
<text text-anchor="middle" x="398" y="-74.5" font-family="Helvetica,sans-Serif" font-size="10.00">include/cppgc/prefinalizer.h</text>
</a>
</g>
</g>
<!-- Node10&#45;&gt;Node12 -->
<g id="edge16" class="edge">
<title>Node10&#45;&gt;Node12</title>
<path fill="none" stroke="midnightblue" d="M344.85,-185.17C357.82,-177.19 371.1,-166.78 380,-154 394.57,-133.08 397.45,-101.9 397.95,-86.81"/>
<polygon fill="midnightblue" stroke="midnightblue" points="342.88,-182.27 335.97,-190.3 346.38,-188.33 342.88,-182.27"/>
</g>
<!-- Node11&#45;&gt;Node12 -->
<g id="edge15" class="edge">
<title>Node11&#45;&gt;Node12</title>
<path fill="none" stroke="midnightblue" d="M342.92,-117.48C357.54,-107 374.69,-94.71 385.92,-86.66"/>
<polygon fill="midnightblue" stroke="midnightblue" points="340.76,-114.73 334.67,-123.4 344.84,-120.42 340.76,-114.73"/>
</g>
</g>
</svg>
