<?xml version="1.0" encoding="UTF-8" standalone="no"?>
<!DOCTYPE svg PUBLIC "-//W3C//DTD SVG 1.1//EN"
 "http://www.w3.org/Graphics/SVG/1.1/DTD/svg11.dtd">
<!-- Generated by graphviz version 2.44.0 ()
 -->
<!-- Title: include/cppgc/cross&#45;thread&#45;persistent.h Pages: 1 -->
<svg width="1272pt" height="598pt"
 viewBox="0.00 0.00 1271.63 598.00" xmlns="http://www.w3.org/2000/svg" xmlns:xlink="http://www.w3.org/1999/xlink">
<g id="graph0" class="graph" transform="scale(1 1) rotate(0) translate(4 594)">
<title>include/cppgc/cross&#45;thread&#45;persistent.h</title>
<polygon fill="white" stroke="transparent" points="-4,4 -4,-594 1267.63,-594 1267.63,4 -4,4"/>
<!-- Node1 -->
<g id="node1" class="node">
<title>Node1</title>
<g id="a_node1"><a xlink:title=" ">
<polygon fill="#bfbfbf" stroke="black" points="408,-559.5 408,-589.5 512,-589.5 512,-559.5 408,-559.5"/>
<text text-anchor="start" x="416" y="-577.5" font-family="Helvetica,sans-Serif" font-size="10.00">include/cppgc/cross</text>
<text text-anchor="middle" x="460" y="-566.5" font-family="Helvetica,sans-Serif" font-size="10.00">&#45;thread&#45;persistent.h</text>
</a>
</g>
</g>
<!-- Node2 -->
<g id="node2" class="node">
<title>Node2</title>
<g id="a_node2"><a xlink:title=" ">
<polygon fill="white" stroke="#bfbfbf" points="1146,-0.5 1146,-19.5 1192,-19.5 1192,-0.5 1146,-0.5"/>
<text text-anchor="middle" x="1169" y="-7.5" font-family="Helvetica,sans-Serif" font-size="10.00">atomic</text>
</a>
</g>
</g>
<!-- Node1&#45;&gt;Node2 -->
<g id="edge1" class="edge">
<title>Node1&#45;&gt;Node2</title>
<path fill="none" stroke="midnightblue" d="M407.68,-571.38C287.11,-565.06 0,-541.27 0,-458 0,-458 0,-458 0,-137.5 0,-64.73 72.12,-76.28 142,-56 239.17,-27.8 970.06,-14.25 1135.69,-11.52"/>
<polygon fill="midnightblue" stroke="midnightblue" points="1135.83,-15.02 1145.77,-11.36 1135.72,-8.02 1135.83,-15.02"/>
</g>
<!-- Node3 -->
<g id="node3" class="node">
<title>Node3</title>
<g id="a_node3"><a xlink:href="persistent-node_8h.html" target="_top" xlink:title=" ">
<polygon fill="white" stroke="black" points="165.5,-380.5 165.5,-410.5 288.5,-410.5 288.5,-380.5 165.5,-380.5"/>
<text text-anchor="start" x="173.5" y="-398.5" font-family="Helvetica,sans-Serif" font-size="10.00">cppgc/internal/persistent</text>
<text text-anchor="middle" x="227" y="-387.5" font-family="Helvetica,sans-Serif" font-size="10.00">&#45;node.h</text>
</a>
</g>
</g>
<!-- Node1&#45;&gt;Node3 -->
<g id="edge2" class="edge">
<title>Node1&#45;&gt;Node3</title>
<path fill="none" stroke="midnightblue" d="M441.33,-559.31C400.07,-527.97 301.04,-452.75 253.43,-416.58"/>
<polygon fill="midnightblue" stroke="midnightblue" points="255.52,-413.77 245.44,-410.51 251.28,-419.34 255.52,-413.77"/>
</g>
<!-- Node14 -->
<g id="node14" class="node">
<title>Node14</title>
<g id="a_node14"><a xlink:href="pointer-policies_8h.html" target="_top" xlink:title=" ">
<polygon fill="white" stroke="black" points="1066,-257.5 1066,-287.5 1176,-287.5 1176,-257.5 1066,-257.5"/>
<text text-anchor="start" x="1074" y="-275.5" font-family="Helvetica,sans-Serif" font-size="10.00">cppgc/internal/pointer</text>
<text text-anchor="middle" x="1121" y="-264.5" font-family="Helvetica,sans-Serif" font-size="10.00">&#45;policies.h</text>
</a>
</g>
</g>
<!-- Node1&#45;&gt;Node14 -->
<g id="edge17" class="edge">
<title>Node1&#45;&gt;Node14</title>
<path fill="none" stroke="midnightblue" d="M512.01,-570.31C672.95,-559.75 1152,-522.86 1152,-458 1152,-458 1152,-458 1152,-394.5 1152,-359.78 1139.87,-321.15 1130.79,-297.09"/>
<polygon fill="midnightblue" stroke="midnightblue" points="1134.03,-295.76 1127.12,-287.73 1127.51,-298.31 1134.03,-295.76"/>
</g>
<!-- Node22 -->
<g id="node22" class="node">
<title>Node22</title>
<g id="a_node22"><a xlink:href="persistent_8h.html" target="_top" xlink:title=" ">
<polygon fill="white" stroke="black" points="412,-503.5 412,-522.5 508,-522.5 508,-503.5 412,-503.5"/>
<text text-anchor="middle" x="460" y="-510.5" font-family="Helvetica,sans-Serif" font-size="10.00">cppgc/persistent.h</text>
</a>
</g>
</g>
<!-- Node1&#45;&gt;Node22 -->
<g id="edge32" class="edge">
<title>Node1&#45;&gt;Node22</title>
<path fill="none" stroke="midnightblue" d="M460,-559.4C460,-551.47 460,-541.46 460,-532.86"/>
<polygon fill="midnightblue" stroke="midnightblue" points="463.5,-532.66 460,-522.66 456.5,-532.66 463.5,-532.66"/>
</g>
<!-- Node23 -->
<g id="node23" class="node">
<title>Node23</title>
<g id="a_node23"><a xlink:href="visitor_8h.html" target="_top" xlink:title=" ">
<polygon fill="white" stroke="black" points="551,-447.5 551,-466.5 631,-466.5 631,-447.5 551,-447.5"/>
<text text-anchor="middle" x="591" y="-454.5" font-family="Helvetica,sans-Serif" font-size="10.00">cppgc/visitor.h</text>
</a>
</g>
</g>
<!-- Node1&#45;&gt;Node23 -->
<g id="edge78" class="edge">
<title>Node1&#45;&gt;Node23</title>
<path fill="none" stroke="midnightblue" d="M476.06,-559.34C500.74,-537.58 547.8,-496.09 573.38,-473.54"/>
<polygon fill="midnightblue" stroke="midnightblue" points="575.98,-475.91 581.17,-466.67 571.35,-470.66 575.98,-475.91"/>
</g>
<!-- Node4 -->
<g id="node4" class="node">
<title>Node4</title>
<g id="a_node4"><a xlink:title=" ">
<polygon fill="white" stroke="#bfbfbf" points="142,-324.5 142,-343.5 180,-343.5 180,-324.5 142,-324.5"/>
<text text-anchor="middle" x="161" y="-331.5" font-family="Helvetica,sans-Serif" font-size="10.00">array</text>
</a>
</g>
</g>
<!-- Node3&#45;&gt;Node4 -->
<g id="edge3" class="edge">
<title>Node3&#45;&gt;Node4</title>
<path fill="none" stroke="midnightblue" d="M211.36,-380.4C201.37,-371.4 188.42,-359.72 178.15,-350.47"/>
<polygon fill="midnightblue" stroke="midnightblue" points="180.37,-347.75 170.6,-343.66 175.69,-352.95 180.37,-347.75"/>
</g>
<!-- Node5 -->
<g id="node5" class="node">
<title>Node5</title>
<g id="a_node5"><a xlink:title=" ">
<polygon fill="white" stroke="#bfbfbf" points="150.5,-62 150.5,-81 201.5,-81 201.5,-62 150.5,-62"/>
<text text-anchor="middle" x="176" y="-69" font-family="Helvetica,sans-Serif" font-size="10.00">memory</text>
</a>
</g>
</g>
<!-- Node3&#45;&gt;Node5 -->
<g id="edge4" class="edge">
<title>Node3&#45;&gt;Node5</title>
<path fill="none" stroke="midnightblue" d="M184.43,-380.4C166.2,-372.37 146.12,-360.55 133,-344 112.83,-318.57 114,-305.95 114,-273.5 114,-273.5 114,-273.5 114,-204.5 114,-159.37 144.05,-113.1 162.31,-89.15"/>
<polygon fill="midnightblue" stroke="midnightblue" points="165.2,-91.13 168.64,-81.11 159.71,-86.8 165.2,-91.13"/>
</g>
<!-- Node6 -->
<g id="node6" class="node">
<title>Node6</title>
<g id="a_node6"><a xlink:title=" ">
<polygon fill="white" stroke="#bfbfbf" points="431,-196 431,-215 475,-215 475,-196 431,-196"/>
<text text-anchor="middle" x="453" y="-203" font-family="Helvetica,sans-Serif" font-size="10.00">vector</text>
</a>
</g>
</g>
<!-- Node3&#45;&gt;Node6 -->
<g id="edge5" class="edge">
<title>Node3&#45;&gt;Node6</title>
<path fill="none" stroke="midnightblue" d="M232.27,-380.46C238.52,-365.21 250.14,-340.77 266,-324 312.49,-274.85 383.73,-237.63 423.52,-219.25"/>
<polygon fill="midnightblue" stroke="midnightblue" points="425.03,-222.41 432.69,-215.09 422.13,-216.03 425.03,-222.41"/>
</g>
<!-- Node7 -->
<g id="node7" class="node">
<title>Node7</title>
<g id="a_node7"><a xlink:href="logging_8h.html" target="_top" xlink:title=" ">
<polygon fill="white" stroke="black" points="274.5,-324.5 274.5,-343.5 393.5,-343.5 393.5,-324.5 274.5,-324.5"/>
<text text-anchor="middle" x="334" y="-331.5" font-family="Helvetica,sans-Serif" font-size="10.00">cppgc/internal/logging.h</text>
</a>
</g>
</g>
<!-- Node3&#45;&gt;Node7 -->
<g id="edge6" class="edge">
<title>Node3&#45;&gt;Node7</title>
<path fill="none" stroke="midnightblue" d="M252.36,-380.4C269.67,-370.77 292.48,-358.09 309.58,-348.58"/>
<polygon fill="midnightblue" stroke="midnightblue" points="311.39,-351.58 318.43,-343.66 307.99,-345.46 311.39,-351.58"/>
</g>
<!-- Node10 -->
<g id="node10" class="node">
<title>Node10</title>
<g id="a_node10"><a xlink:href="v8config_8h.html" target="_top" xlink:title=" ">
<polygon fill="white" stroke="black" points="844,-62 844,-81 904,-81 904,-62 844,-62"/>
<text text-anchor="middle" x="874" y="-69" font-family="Helvetica,sans-Serif" font-size="10.00">v8config.h</text>
</a>
</g>
</g>
<!-- Node3&#45;&gt;Node10 -->
<g id="edge16" class="edge">
<title>Node3&#45;&gt;Node10</title>
<path fill="none" stroke="midnightblue" d="M228.94,-380.32C231.37,-365.58 236.44,-342.18 246,-324 264.2,-289.4 272.83,-281.87 303,-257 349.84,-218.4 368.4,-218.47 422,-190 453.6,-173.22 463.49,-172.69 494,-154 513.78,-141.88 514.56,-131.87 536,-123 637.28,-81.12 768.38,-73.39 833.53,-72.33"/>
<polygon fill="midnightblue" stroke="midnightblue" points="833.83,-75.82 843.78,-72.21 833.74,-68.82 833.83,-75.82"/>
</g>
<!-- Node11 -->
<g id="node11" class="node">
<title>Node11</title>
<g id="a_node11"><a xlink:href="trace-trait_8h.html" target="_top" xlink:title=" ">
<polygon fill="white" stroke="black" points="602.5,-324.5 602.5,-343.5 697.5,-343.5 697.5,-324.5 602.5,-324.5"/>
<text text-anchor="middle" x="650" y="-331.5" font-family="Helvetica,sans-Serif" font-size="10.00">cppgc/trace&#45;trait.h</text>
</a>
</g>
</g>
<!-- Node3&#45;&gt;Node11 -->
<g id="edge11" class="edge">
<title>Node3&#45;&gt;Node11</title>
<path fill="none" stroke="midnightblue" d="M288.51,-385.85C369.86,-374.4 512.23,-354.38 591.86,-343.18"/>
<polygon fill="midnightblue" stroke="midnightblue" points="592.78,-346.58 602.19,-341.72 591.8,-339.65 592.78,-346.58"/>
</g>
<!-- Node8 -->
<g id="node8" class="node">
<title>Node8</title>
<g id="a_node8"><a xlink:href="source-location_8h.html" target="_top" xlink:title=" ">
<polygon fill="white" stroke="black" points="172.5,-196 172.5,-215 291.5,-215 291.5,-196 172.5,-196"/>
<text text-anchor="middle" x="232" y="-203" font-family="Helvetica,sans-Serif" font-size="10.00">cppgc/source&#45;location.h</text>
</a>
</g>
</g>
<!-- Node7&#45;&gt;Node8 -->
<g id="edge7" class="edge">
<title>Node7&#45;&gt;Node8</title>
<path fill="none" stroke="midnightblue" d="M326.99,-324.31C310.18,-303.45 267.33,-250.31 245.39,-223.11"/>
<polygon fill="midnightblue" stroke="midnightblue" points="248.06,-220.84 239.06,-215.26 242.61,-225.24 248.06,-220.84"/>
</g>
<!-- Node7&#45;&gt;Node10 -->
<g id="edge10" class="edge">
<title>Node7&#45;&gt;Node10</title>
<path fill="none" stroke="midnightblue" d="M393.89,-331.67C520.21,-328.31 805.02,-317.5 837,-288 892.98,-236.37 883.95,-133.33 877.42,-91.15"/>
<polygon fill="midnightblue" stroke="midnightblue" points="880.85,-90.45 875.73,-81.17 873.94,-91.61 880.85,-90.45"/>
</g>
<!-- Node9 -->
<g id="node9" class="node">
<title>Node9</title>
<g id="a_node9"><a xlink:title=" ">
<polygon fill="white" stroke="#bfbfbf" points="219.5,-62 219.5,-81 260.5,-81 260.5,-62 219.5,-62"/>
<text text-anchor="middle" x="240" y="-69" font-family="Helvetica,sans-Serif" font-size="10.00">string</text>
</a>
</g>
</g>
<!-- Node8&#45;&gt;Node9 -->
<g id="edge8" class="edge">
<title>Node8&#45;&gt;Node9</title>
<path fill="none" stroke="midnightblue" d="M232.52,-195.84C233.81,-174.67 237.12,-119.95 238.88,-91.03"/>
<polygon fill="midnightblue" stroke="midnightblue" points="242.37,-91.21 239.48,-81.02 235.38,-90.79 242.37,-91.21"/>
</g>
<!-- Node8&#45;&gt;Node10 -->
<g id="edge9" class="edge">
<title>Node8&#45;&gt;Node10</title>
<path fill="none" stroke="midnightblue" d="M281.04,-195.99C337.86,-185.71 427.69,-168.05 459,-154 480.5,-144.36 480.12,-131.73 502,-123 616,-77.5 763.6,-71.61 833.66,-71.68"/>
<polygon fill="midnightblue" stroke="midnightblue" points="833.81,-75.18 843.82,-71.73 833.84,-68.18 833.81,-75.18"/>
</g>
<!-- Node11&#45;&gt;Node10 -->
<g id="edge15" class="edge">
<title>Node11&#45;&gt;Node10</title>
<path fill="none" stroke="midnightblue" d="M697.62,-329.6C755.14,-324.46 847.05,-312.57 870,-288 921.11,-233.27 894.76,-132.42 880.82,-91"/>
<polygon fill="midnightblue" stroke="midnightblue" points="884.06,-89.67 877.44,-81.39 877.46,-91.99 884.06,-89.67"/>
</g>
<!-- Node12 -->
<g id="node12" class="node">
<title>Node12</title>
<g id="a_node12"><a xlink:title=" ">
<polygon fill="white" stroke="#bfbfbf" points="493,-196 493,-215 555,-215 555,-196 493,-196"/>
<text text-anchor="middle" x="524" y="-203" font-family="Helvetica,sans-Serif" font-size="10.00">type_traits</text>
</a>
</g>
</g>
<!-- Node11&#45;&gt;Node12 -->
<g id="edge12" class="edge">
<title>Node11&#45;&gt;Node12</title>
<path fill="none" stroke="midnightblue" d="M650.13,-324.43C649.92,-309.16 647.4,-276.97 631,-257 621.07,-244.91 585.09,-229.33 557.56,-218.7"/>
<polygon fill="midnightblue" stroke="midnightblue" points="558.46,-215.29 547.87,-215.02 555.98,-221.84 558.46,-215.29"/>
</g>
<!-- Node13 -->
<g id="node13" class="node">
<title>Node13</title>
<g id="a_node13"><a xlink:href="type-traits_8h.html" target="_top" xlink:title=" ">
<polygon fill="white" stroke="black" points="526,-263 526,-282 622,-282 622,-263 526,-263"/>
<text text-anchor="middle" x="574" y="-270" font-family="Helvetica,sans-Serif" font-size="10.00">cppgc/type&#45;traits.h</text>
</a>
</g>
</g>
<!-- Node11&#45;&gt;Node13 -->
<g id="edge13" class="edge">
<title>Node11&#45;&gt;Node13</title>
<path fill="none" stroke="midnightblue" d="M639.11,-324.48C627.03,-315.02 607.33,-299.6 592.76,-288.19"/>
<polygon fill="midnightblue" stroke="midnightblue" points="594.9,-285.42 584.87,-282.01 590.59,-290.93 594.9,-285.42"/>
</g>
<!-- Node13&#45;&gt;Node12 -->
<g id="edge14" class="edge">
<title>Node13&#45;&gt;Node12</title>
<path fill="none" stroke="midnightblue" d="M567.26,-262.73C559.46,-252.6 546.45,-235.69 536.74,-223.06"/>
<polygon fill="midnightblue" stroke="midnightblue" points="539.51,-220.92 530.64,-215.13 533.96,-225.19 539.51,-220.92"/>
</g>
<!-- Node14&#45;&gt;Node8 -->
<g id="edge30" class="edge">
<title>Node14&#45;&gt;Node8</title>
<path fill="none" stroke="midnightblue" d="M1065.86,-265.29C1040.1,-262.52 1009,-259.35 981,-257 732.91,-236.17 670.35,-238.47 422,-221 382.35,-218.21 338.07,-214.85 302.24,-212.06"/>
<polygon fill="midnightblue" stroke="midnightblue" points="302.13,-208.54 291.89,-211.25 301.59,-215.52 302.13,-208.54"/>
</g>
<!-- Node14&#45;&gt;Node10 -->
<g id="edge31" class="edge">
<title>Node14&#45;&gt;Node10</title>
<path fill="none" stroke="midnightblue" d="M1113.68,-257.25C1104.71,-240.4 1088.53,-211.9 1071,-190 1044.28,-156.63 1037.91,-146.18 1002,-123 974.59,-105.31 940,-92.12 913.69,-83.67"/>
<polygon fill="midnightblue" stroke="midnightblue" points="914.64,-80.3 904.05,-80.66 912.55,-86.98 914.64,-80.3"/>
</g>
<!-- Node14&#45;&gt;Node12 -->
<g id="edge19" class="edge">
<title>Node14&#45;&gt;Node12</title>
<path fill="none" stroke="midnightblue" d="M1065.82,-265.68C1040.05,-262.99 1008.96,-259.78 981,-257 813.07,-240.31 770.15,-244.25 603,-221 590.59,-219.27 577.16,-216.97 564.96,-214.71"/>
<polygon fill="midnightblue" stroke="midnightblue" points="565.52,-211.26 555.04,-212.84 564.22,-218.14 565.52,-211.26"/>
</g>
<!-- Node15 -->
<g id="node15" class="node">
<title>Node15</title>
<g id="a_node15"><a xlink:title=" ">
<polygon fill="white" stroke="#bfbfbf" points="1016,-196 1016,-215 1062,-215 1062,-196 1016,-196"/>
<text text-anchor="middle" x="1039" y="-203" font-family="Helvetica,sans-Serif" font-size="10.00">cstdint</text>
</a>
</g>
</g>
<!-- Node14&#45;&gt;Node15 -->
<g id="edge18" class="edge">
<title>Node14&#45;&gt;Node15</title>
<path fill="none" stroke="midnightblue" d="M1103.21,-257.4C1089.92,-246.86 1071.77,-232.48 1058.16,-221.69"/>
<polygon fill="midnightblue" stroke="midnightblue" points="1059.98,-218.66 1049.97,-215.19 1055.63,-224.15 1059.98,-218.66"/>
</g>
<!-- Node16 -->
<g id="node16" class="node">
<title>Node16</title>
<g id="a_node16"><a xlink:href="write-barrier_8h.html" target="_top" xlink:title=" ">
<polygon fill="white" stroke="black" points="1118.5,-190.5 1118.5,-220.5 1219.5,-220.5 1219.5,-190.5 1118.5,-190.5"/>
<text text-anchor="start" x="1126.5" y="-208.5" font-family="Helvetica,sans-Serif" font-size="10.00">cppgc/internal/write</text>
<text text-anchor="middle" x="1169" y="-197.5" font-family="Helvetica,sans-Serif" font-size="10.00">&#45;barrier.h</text>
</a>
</g>
</g>
<!-- Node14&#45;&gt;Node16 -->
<g id="edge20" class="edge">
<title>Node14&#45;&gt;Node16</title>
<path fill="none" stroke="midnightblue" d="M1131.42,-257.4C1137.58,-249.05 1145.53,-238.29 1152.52,-228.81"/>
<polygon fill="midnightblue" stroke="midnightblue" points="1155.48,-230.7 1158.61,-220.58 1149.85,-226.54 1155.48,-230.7"/>
</g>
<!-- Node16&#45;&gt;Node10 -->
<g id="edge29" class="edge">
<title>Node16&#45;&gt;Node10</title>
<path fill="none" stroke="midnightblue" d="M1150.59,-190.28C1121.93,-168.23 1068.89,-127.8 1059,-123 1011.91,-100.14 952.89,-86.31 914.35,-79.04"/>
<polygon fill="midnightblue" stroke="midnightblue" points="914.51,-75.51 904.05,-77.16 913.26,-82.4 914.51,-75.51"/>
</g>
<!-- Node17 -->
<g id="node17" class="node">
<title>Node17</title>
<g id="a_node17"><a xlink:href="api-constants_8h.html" target="_top" xlink:title=" ">
<polygon fill="white" stroke="black" points="356.5,-123.5 356.5,-153.5 449.5,-153.5 449.5,-123.5 356.5,-123.5"/>
<text text-anchor="start" x="364.5" y="-141.5" font-family="Helvetica,sans-Serif" font-size="10.00">cppgc/internal/api</text>
<text text-anchor="middle" x="403" y="-130.5" font-family="Helvetica,sans-Serif" font-size="10.00">&#45;constants.h</text>
</a>
</g>
</g>
<!-- Node16&#45;&gt;Node17 -->
<g id="edge21" class="edge">
<title>Node16&#45;&gt;Node17</title>
<path fill="none" stroke="midnightblue" d="M1118.49,-196.24C1103.26,-193.96 1086.48,-191.66 1071,-190 834.05,-164.54 773.4,-174.92 536,-154 511.01,-151.8 483.43,-148.87 459.89,-146.23"/>
<polygon fill="midnightblue" stroke="midnightblue" points="460.06,-142.72 449.73,-145.07 459.27,-149.68 460.06,-142.72"/>
</g>
<!-- Node20 -->
<g id="node20" class="node">
<title>Node20</title>
<g id="a_node20"><a xlink:href="process-heap_8h.html" target="_top" xlink:title=" ">
<polygon fill="white" stroke="black" points="1111.5,-123.5 1111.5,-153.5 1226.5,-153.5 1226.5,-123.5 1111.5,-123.5"/>
<text text-anchor="start" x="1119.5" y="-141.5" font-family="Helvetica,sans-Serif" font-size="10.00">cppgc/internal/process</text>
<text text-anchor="middle" x="1169" y="-130.5" font-family="Helvetica,sans-Serif" font-size="10.00">&#45;heap.h</text>
</a>
</g>
</g>
<!-- Node16&#45;&gt;Node20 -->
<g id="edge25" class="edge">
<title>Node16&#45;&gt;Node20</title>
<path fill="none" stroke="midnightblue" d="M1169,-190.4C1169,-182.64 1169,-172.81 1169,-163.86"/>
<polygon fill="midnightblue" stroke="midnightblue" points="1172.5,-163.58 1169,-153.58 1165.5,-163.58 1172.5,-163.58"/>
</g>
<!-- Node17&#45;&gt;Node10 -->
<g id="edge24" class="edge">
<title>Node17&#45;&gt;Node10</title>
<path fill="none" stroke="midnightblue" d="M449.52,-125.88C454.39,-124.83 459.29,-123.85 464,-123 598.55,-98.8 760.06,-82.64 833.77,-75.96"/>
<polygon fill="midnightblue" stroke="midnightblue" points="834.34,-79.43 843.99,-75.05 833.72,-72.45 834.34,-79.43"/>
</g>
<!-- Node18 -->
<g id="node18" class="node">
<title>Node18</title>
<g id="a_node18"><a xlink:title=" ">
<polygon fill="white" stroke="#bfbfbf" points="410.5,-62 410.5,-81 461.5,-81 461.5,-62 410.5,-62"/>
<text text-anchor="middle" x="436" y="-69" font-family="Helvetica,sans-Serif" font-size="10.00">stddef.h</text>
</a>
</g>
</g>
<!-- Node17&#45;&gt;Node18 -->
<g id="edge22" class="edge">
<title>Node17&#45;&gt;Node18</title>
<path fill="none" stroke="midnightblue" d="M410.16,-123.4C415.1,-113.66 421.71,-100.65 427.01,-90.21"/>
<polygon fill="midnightblue" stroke="midnightblue" points="430.18,-91.7 431.59,-81.19 423.94,-88.53 430.18,-91.7"/>
</g>
<!-- Node19 -->
<g id="node19" class="node">
<title>Node19</title>
<g id="a_node19"><a xlink:title=" ">
<polygon fill="white" stroke="#bfbfbf" points="344,-62 344,-81 392,-81 392,-62 344,-62"/>
<text text-anchor="middle" x="368" y="-69" font-family="Helvetica,sans-Serif" font-size="10.00">stdint.h</text>
</a>
</g>
</g>
<!-- Node17&#45;&gt;Node19 -->
<g id="edge23" class="edge">
<title>Node17&#45;&gt;Node19</title>
<path fill="none" stroke="midnightblue" d="M395.41,-123.4C390.16,-113.66 383.16,-100.65 377.54,-90.21"/>
<polygon fill="midnightblue" stroke="midnightblue" points="380.5,-88.34 372.68,-81.19 374.34,-91.66 380.5,-88.34"/>
</g>
<!-- Node20&#45;&gt;Node10 -->
<g id="edge28" class="edge">
<title>Node20&#45;&gt;Node10</title>
<path fill="none" stroke="midnightblue" d="M1111.42,-124.81C1053.38,-112.02 965.3,-92.62 914.33,-81.39"/>
<polygon fill="midnightblue" stroke="midnightblue" points="914.86,-77.92 904.34,-79.19 913.35,-84.76 914.86,-77.92"/>
</g>
<!-- Node21 -->
<g id="node21" class="node">
<title>Node21</title>
<g id="a_node21"><a xlink:href="atomic-entry-flag_8h.html" target="_top" xlink:title=" ">
<polygon fill="white" stroke="black" points="1114,-56.5 1114,-86.5 1224,-86.5 1224,-56.5 1114,-56.5"/>
<text text-anchor="start" x="1122" y="-74.5" font-family="Helvetica,sans-Serif" font-size="10.00">cppgc/internal/atomic</text>
<text text-anchor="middle" x="1169" y="-63.5" font-family="Helvetica,sans-Serif" font-size="10.00">&#45;entry&#45;flag.h</text>
</a>
</g>
</g>
<!-- Node20&#45;&gt;Node21 -->
<g id="edge26" class="edge">
<title>Node20&#45;&gt;Node21</title>
<path fill="none" stroke="midnightblue" d="M1169,-123.4C1169,-115.64 1169,-105.81 1169,-96.86"/>
<polygon fill="midnightblue" stroke="midnightblue" points="1172.5,-96.58 1169,-86.58 1165.5,-96.58 1172.5,-96.58"/>
</g>
<!-- Node21&#45;&gt;Node2 -->
<g id="edge27" class="edge">
<title>Node21&#45;&gt;Node2</title>
<path fill="none" stroke="midnightblue" d="M1169,-56.4C1169,-48.47 1169,-38.46 1169,-29.86"/>
<polygon fill="midnightblue" stroke="midnightblue" points="1172.5,-29.66 1169,-19.66 1165.5,-29.66 1172.5,-29.66"/>
</g>
<!-- Node22&#45;&gt;Node3 -->
<g id="edge34" class="edge">
<title>Node22&#45;&gt;Node3</title>
<path fill="none" stroke="midnightblue" d="M442.49,-503.32C404.83,-484.65 315.42,-440.33 264.39,-415.04"/>
<polygon fill="midnightblue" stroke="midnightblue" points="265.85,-411.85 255.33,-410.55 262.74,-418.12 265.85,-411.85"/>
</g>
<!-- Node22&#45;&gt;Node8 -->
<g id="edge36" class="edge">
<title>Node22&#45;&gt;Node8</title>
<path fill="none" stroke="midnightblue" d="M411.89,-504.38C328.2,-490.06 161.33,-456.43 126,-411 83.56,-356.42 103.81,-310.18 148,-257 161.86,-240.33 182.72,-227.74 200.2,-219.3"/>
<polygon fill="midnightblue" stroke="midnightblue" points="201.85,-222.39 209.49,-215.04 198.94,-216.03 201.85,-222.39"/>
</g>
<!-- Node22&#45;&gt;Node10 -->
<g id="edge77" class="edge">
<title>Node22&#45;&gt;Node10</title>
<path fill="none" stroke="midnightblue" d="M508.29,-512.56C647.2,-512.88 1038,-504.2 1038,-396.5 1038,-396.5 1038,-396.5 1038,-333 1038,-282.32 981.24,-162.11 949,-123 936.18,-107.45 917.36,-94.8 901.78,-86.05"/>
<polygon fill="midnightblue" stroke="midnightblue" points="903.05,-82.76 892.58,-81.11 899.74,-88.93 903.05,-82.76"/>
</g>
<!-- Node22&#45;&gt;Node12 -->
<g id="edge33" class="edge">
<title>Node22&#45;&gt;Node12</title>
<path fill="none" stroke="midnightblue" d="M455.03,-503.34C444.73,-484.53 422,-438.3 422,-396.5 422,-396.5 422,-396.5 422,-333 422,-283.14 470.61,-241.84 500.71,-221.04"/>
<polygon fill="midnightblue" stroke="midnightblue" points="503.01,-223.71 509.39,-215.25 499.12,-217.89 503.01,-223.71"/>
</g>
<!-- Node22&#45;&gt;Node13 -->
<g id="edge37" class="edge">
<title>Node22&#45;&gt;Node13</title>
<path fill="none" stroke="midnightblue" d="M463.49,-503.24C472.04,-481.9 494.98,-425.64 517,-380 532.35,-348.19 552.18,-312.13 563.94,-291.19"/>
<polygon fill="midnightblue" stroke="midnightblue" points="567.15,-292.64 569.02,-282.21 561.05,-289.19 567.15,-292.64"/>
</g>
<!-- Node22&#45;&gt;Node14 -->
<g id="edge35" class="edge">
<title>Node22&#45;&gt;Node14</title>
<path fill="none" stroke="midnightblue" d="M508.21,-511.31C641.7,-508.99 1009.19,-499.68 1052,-467 1105.61,-426.07 1117.67,-340.03 1120.31,-297.85"/>
<polygon fill="midnightblue" stroke="midnightblue" points="1123.81,-297.82 1120.81,-287.66 1116.82,-297.47 1123.81,-297.82"/>
</g>
<!-- Node22&#45;&gt;Node23 -->
<g id="edge38" class="edge">
<title>Node22&#45;&gt;Node23</title>
<path fill="none" stroke="midnightblue" d="M480.76,-503.44C502.32,-494.56 536.26,-480.56 560.79,-470.45"/>
<polygon fill="midnightblue" stroke="midnightblue" points="562.43,-473.56 570.34,-466.52 559.76,-467.09 562.43,-473.56"/>
</g>
<!-- Node23&#45;&gt;Node7 -->
<g id="edge53" class="edge">
<title>Node23&#45;&gt;Node7</title>
<path fill="none" stroke="midnightblue" d="M572.93,-447.49C528.61,-426.63 414.33,-372.82 361.51,-347.95"/>
<polygon fill="midnightblue" stroke="midnightblue" points="362.93,-344.75 352.4,-343.66 359.95,-351.09 362.93,-344.75"/>
</g>
<!-- Node23&#45;&gt;Node8 -->
<g id="edge75" class="edge">
<title>Node23&#45;&gt;Node8</title>
<path fill="none" stroke="midnightblue" d="M550.94,-454.26C449.38,-449.51 187.66,-435.05 157,-411 125.44,-386.25 119.24,-361.68 133,-324 148.96,-280.29 189.13,-241.59 213.11,-221.37"/>
<polygon fill="midnightblue" stroke="midnightblue" points="215.35,-224.07 220.85,-215.01 210.91,-218.66 215.35,-224.07"/>
</g>
<!-- Node23&#45;&gt;Node11 -->
<g id="edge76" class="edge">
<title>Node23&#45;&gt;Node11</title>
<path fill="none" stroke="midnightblue" d="M617.93,-447.36C634.72,-440.41 654.98,-428.82 665,-411 675.26,-392.75 667.49,-368.59 659.83,-352.46"/>
<polygon fill="midnightblue" stroke="midnightblue" points="662.94,-350.85 655.24,-343.57 656.72,-354.06 662.94,-350.85"/>
</g>
<!-- Node23&#45;&gt;Node14 -->
<g id="edge54" class="edge">
<title>Node23&#45;&gt;Node14</title>
<path fill="none" stroke="midnightblue" d="M631.23,-454.8C689.62,-451.97 800.53,-442.54 889,-411 969.7,-382.23 1053.57,-324.34 1094.84,-293.65"/>
<polygon fill="midnightblue" stroke="midnightblue" points="1097.09,-296.34 1102.99,-287.54 1092.89,-290.75 1097.09,-296.34"/>
</g>
<!-- Node24 -->
<g id="node24" class="node">
<title>Node24</title>
<g id="a_node24"><a xlink:href="garbage-collected_8h.html" target="_top" xlink:title=" ">
<polygon fill="white" stroke="black" points="526,-386 526,-405 656,-405 656,-386 526,-386"/>
<text text-anchor="middle" x="591" y="-393" font-family="Helvetica,sans-Serif" font-size="10.00">cppgc/garbage&#45;collected.h</text>
</a>
</g>
</g>
<!-- Node23&#45;&gt;Node24 -->
<g id="edge39" class="edge">
<title>Node23&#45;&gt;Node24</title>
<path fill="none" stroke="midnightblue" d="M591,-447.48C591,-439.08 591,-425.98 591,-415.16"/>
<polygon fill="midnightblue" stroke="midnightblue" points="594.5,-415.01 591,-405.01 587.5,-415.01 594.5,-415.01"/>
</g>
<!-- Node28 -->
<g id="node28" class="node">
<title>Node28</title>
<g id="a_node28"><a xlink:href="liveness-broker_8h.html" target="_top" xlink:title=" ">
<polygon fill="white" stroke="black" points="731.5,-386 731.5,-405 850.5,-405 850.5,-386 731.5,-386"/>
<text text-anchor="middle" x="791" y="-393" font-family="Helvetica,sans-Serif" font-size="10.00">cppgc/liveness&#45;broker.h</text>
</a>
</g>
</g>
<!-- Node23&#45;&gt;Node28 -->
<g id="edge55" class="edge">
<title>Node23&#45;&gt;Node28</title>
<path fill="none" stroke="midnightblue" d="M619.66,-447.48C654.56,-437.09 713.65,-419.51 752.5,-407.95"/>
<polygon fill="midnightblue" stroke="midnightblue" points="753.81,-411.22 762.4,-405.01 751.82,-404.51 753.81,-411.22"/>
</g>
<!-- Node32 -->
<g id="node32" class="node">
<title>Node32</title>
<g id="a_node32"><a xlink:href="member_8h.html" target="_top" xlink:title=" ">
<polygon fill="white" stroke="black" points="870.5,-324.5 870.5,-343.5 959.5,-343.5 959.5,-324.5 870.5,-324.5"/>
<text text-anchor="middle" x="915" y="-331.5" font-family="Helvetica,sans-Serif" font-size="10.00">cppgc/member.h</text>
</a>
</g>
</g>
<!-- Node23&#45;&gt;Node32 -->
<g id="edge74" class="edge">
<title>Node23&#45;&gt;Node32</title>
<path fill="none" stroke="midnightblue" d="M631.15,-453.02C696.52,-447.55 822.42,-434.3 860,-411 882.22,-397.22 898.19,-370.85 907.02,-353.09"/>
<polygon fill="midnightblue" stroke="midnightblue" points="910.31,-354.32 911.39,-343.79 903.97,-351.35 910.31,-354.32"/>
</g>
<!-- Node24&#45;&gt;Node11 -->
<g id="edge51" class="edge">
<title>Node24&#45;&gt;Node11</title>
<path fill="none" stroke="midnightblue" d="M599.45,-385.98C608.57,-376.78 623.27,-361.96 634.48,-350.66"/>
<polygon fill="midnightblue" stroke="midnightblue" points="637.01,-353.07 641.56,-343.51 632.04,-348.15 637.01,-353.07"/>
</g>
<!-- Node24&#45;&gt;Node12 -->
<g id="edge40" class="edge">
<title>Node24&#45;&gt;Node12</title>
<path fill="none" stroke="midnightblue" d="M582.12,-385.86C565.45,-368.94 529.99,-329.47 517,-288 510.45,-267.1 514.33,-241.8 518.46,-224.99"/>
<polygon fill="midnightblue" stroke="midnightblue" points="521.84,-225.87 521.09,-215.3 515.09,-224.03 521.84,-225.87"/>
</g>
<!-- Node24&#45;&gt;Node13 -->
<g id="edge52" class="edge">
<title>Node24&#45;&gt;Node13</title>
<path fill="none" stroke="midnightblue" d="M589.78,-385.8C587.03,-366.26 580.33,-318.56 576.61,-292.05"/>
<polygon fill="midnightblue" stroke="midnightblue" points="580.07,-291.54 575.21,-282.12 573.14,-292.51 580.07,-291.54"/>
</g>
<!-- Node24&#45;&gt;Node17 -->
<g id="edge41" class="edge">
<title>Node24&#45;&gt;Node17</title>
<path fill="none" stroke="midnightblue" d="M578.22,-385.72C546,-362.84 461.23,-297.76 422,-221 412.83,-203.07 408.02,-180.65 405.54,-163.87"/>
<polygon fill="midnightblue" stroke="midnightblue" points="408.98,-163.23 404.22,-153.77 402.04,-164.13 408.98,-163.23"/>
</g>
<!-- Node25 -->
<g id="node25" class="node">
<title>Node25</title>
<g id="a_node25"><a xlink:href="platform_8h.html" target="_top" xlink:title=" ">
<polygon fill="white" stroke="black" points="611.5,-196 611.5,-215 700.5,-215 700.5,-196 611.5,-196"/>
<text text-anchor="middle" x="656" y="-203" font-family="Helvetica,sans-Serif" font-size="10.00">cppgc/platform.h</text>
</a>
</g>
</g>
<!-- Node24&#45;&gt;Node25 -->
<g id="edge42" class="edge">
<title>Node24&#45;&gt;Node25</title>
<path fill="none" stroke="midnightblue" d="M640.7,-385.98C665.06,-379.04 692.25,-366.5 707,-344 732.94,-304.42 694.32,-249.82 671.22,-222.89"/>
<polygon fill="midnightblue" stroke="midnightblue" points="673.62,-220.32 664.37,-215.17 668.39,-224.97 673.62,-220.32"/>
</g>
<!-- Node25&#45;&gt;Node10 -->
<g id="edge50" class="edge">
<title>Node25&#45;&gt;Node10</title>
<path fill="none" stroke="midnightblue" d="M659.55,-195.95C666.86,-179.38 685.2,-142.77 712,-123 748.1,-96.38 798.56,-83.56 833.53,-77.54"/>
<polygon fill="midnightblue" stroke="midnightblue" points="834.53,-80.93 843.85,-75.89 833.42,-74.01 834.53,-80.93"/>
</g>
<!-- Node26 -->
<g id="node26" class="node">
<title>Node26</title>
<g id="a_node26"><a xlink:href="v8-platform_8h.html" target="_top" xlink:title=" ">
<polygon fill="white" stroke="black" points="265.5,-129 265.5,-148 338.5,-148 338.5,-129 265.5,-129"/>
<text text-anchor="middle" x="302" y="-136" font-family="Helvetica,sans-Serif" font-size="10.00">v8&#45;platform.h</text>
</a>
</g>
</g>
<!-- Node25&#45;&gt;Node26 -->
<g id="edge43" class="edge">
<title>Node25&#45;&gt;Node26</title>
<path fill="none" stroke="midnightblue" d="M623.67,-195.95C615.04,-193.84 605.7,-191.69 597,-190 487.24,-168.63 457.01,-178.89 348,-154 344.16,-153.12 340.18,-152.08 336.24,-150.96"/>
<polygon fill="midnightblue" stroke="midnightblue" points="337.21,-147.6 326.63,-148.07 335.2,-154.3 337.21,-147.6"/>
</g>
<!-- Node26&#45;&gt;Node5 -->
<g id="edge47" class="edge">
<title>Node26&#45;&gt;Node5</title>
<path fill="none" stroke="midnightblue" d="M285.27,-128.87C263.9,-117.84 226.7,-98.66 201.72,-85.77"/>
<polygon fill="midnightblue" stroke="midnightblue" points="203.29,-82.64 192.8,-81.17 200.08,-88.86 203.29,-82.64"/>
</g>
<!-- Node26&#45;&gt;Node9 -->
<g id="edge48" class="edge">
<title>Node26&#45;&gt;Node9</title>
<path fill="none" stroke="midnightblue" d="M293.64,-128.73C283.88,-118.5 267.53,-101.36 255.45,-88.69"/>
<polygon fill="midnightblue" stroke="midnightblue" points="257.66,-85.95 248.23,-81.13 252.6,-90.78 257.66,-85.95"/>
</g>
<!-- Node26&#45;&gt;Node10 -->
<g id="edge49" class="edge">
<title>Node26&#45;&gt;Node10</title>
<path fill="none" stroke="midnightblue" d="M326.1,-128.86C333.09,-126.64 340.78,-124.47 348,-123 526.61,-86.69 744.79,-76.32 833.55,-73.5"/>
<polygon fill="midnightblue" stroke="midnightblue" points="833.84,-76.99 843.72,-73.19 833.62,-70 833.84,-76.99"/>
</g>
<!-- Node26&#45;&gt;Node18 -->
<g id="edge44" class="edge">
<title>Node26&#45;&gt;Node18</title>
<path fill="none" stroke="midnightblue" d="M319.79,-128.87C342.62,-117.8 382.43,-98.49 409,-85.6"/>
<polygon fill="midnightblue" stroke="midnightblue" points="410.66,-88.68 418.13,-81.17 407.61,-82.38 410.66,-88.68"/>
</g>
<!-- Node26&#45;&gt;Node19 -->
<g id="edge45" class="edge">
<title>Node26&#45;&gt;Node19</title>
<path fill="none" stroke="midnightblue" d="M310.9,-128.73C321.39,-118.4 339.02,-101.04 351.92,-88.33"/>
<polygon fill="midnightblue" stroke="midnightblue" points="354.57,-90.64 359.24,-81.13 349.66,-85.65 354.57,-90.64"/>
</g>
<!-- Node27 -->
<g id="node27" class="node">
<title>Node27</title>
<g id="a_node27"><a xlink:title=" ">
<polygon fill="white" stroke="#bfbfbf" points="278.5,-62 278.5,-81 325.5,-81 325.5,-62 278.5,-62"/>
<text text-anchor="middle" x="302" y="-69" font-family="Helvetica,sans-Serif" font-size="10.00">stdlib.h</text>
</a>
</g>
</g>
<!-- Node26&#45;&gt;Node27 -->
<g id="edge46" class="edge">
<title>Node26&#45;&gt;Node27</title>
<path fill="none" stroke="midnightblue" d="M302,-128.73C302,-119.18 302,-103.62 302,-91.28"/>
<polygon fill="midnightblue" stroke="midnightblue" points="305.5,-91.13 302,-81.13 298.5,-91.13 305.5,-91.13"/>
</g>
<!-- Node28&#45;&gt;Node10 -->
<g id="edge73" class="edge">
<title>Node28&#45;&gt;Node10</title>
<path fill="none" stroke="midnightblue" d="M850.69,-391.41C933.12,-384.45 1083.14,-361.78 1185,-288 1236.61,-250.62 1232.68,-217.64 1236,-154 1236.72,-140.24 1245.04,-133.39 1236,-123 1215.09,-98.97 1004.26,-81.57 914.32,-75.18"/>
<polygon fill="midnightblue" stroke="midnightblue" points="914.44,-71.68 904.22,-74.47 913.95,-78.66 914.44,-71.68"/>
</g>
<!-- Node28&#45;&gt;Node11 -->
<g id="edge72" class="edge">
<title>Node28&#45;&gt;Node11</title>
<path fill="none" stroke="midnightblue" d="M770.8,-385.98C746.93,-375.9 707,-359.05 679.63,-347.5"/>
<polygon fill="midnightblue" stroke="midnightblue" points="680.74,-344.17 670.16,-343.51 678.02,-350.62 680.74,-344.17"/>
</g>
<!-- Node29 -->
<g id="node29" class="node">
<title>Node29</title>
<g id="a_node29"><a xlink:href="heap_8h.html" target="_top" xlink:title=" ">
<polygon fill="white" stroke="black" points="754,-263 754,-282 828,-282 828,-263 754,-263"/>
<text text-anchor="middle" x="791" y="-270" font-family="Helvetica,sans-Serif" font-size="10.00">cppgc/heap.h</text>
</a>
</g>
</g>
<!-- Node28&#45;&gt;Node29 -->
<g id="edge56" class="edge">
<title>Node28&#45;&gt;Node29</title>
<path fill="none" stroke="midnightblue" d="M791,-385.8C791,-366.35 791,-318.99 791,-292.4"/>
<polygon fill="midnightblue" stroke="midnightblue" points="794.5,-292.12 791,-282.12 787.5,-292.12 794.5,-292.12"/>
</g>
<!-- Node28&#45;&gt;Node32 -->
<g id="edge65" class="edge">
<title>Node28&#45;&gt;Node32</title>
<path fill="none" stroke="midnightblue" d="M808.77,-385.98C829.48,-376.03 863.95,-359.49 887.99,-347.96"/>
<polygon fill="midnightblue" stroke="midnightblue" points="889.77,-350.99 897.27,-343.51 886.74,-344.68 889.77,-350.99"/>
</g>
<!-- Node29&#45;&gt;Node5 -->
<g id="edge57" class="edge">
<title>Node29&#45;&gt;Node5</title>
<path fill="none" stroke="midnightblue" d="M753.97,-263.44C707.12,-252.92 629.33,-234.28 603,-221 583.23,-211.03 584.44,-198.5 564,-190 437.16,-137.24 380.55,-214.08 257,-154 226.78,-139.31 201.26,-108.67 187.34,-89.42"/>
<polygon fill="midnightblue" stroke="midnightblue" points="190.06,-87.21 181.47,-81.01 184.32,-91.22 190.06,-87.21"/>
</g>
<!-- Node29&#45;&gt;Node6 -->
<g id="edge58" class="edge">
<title>Node29&#45;&gt;Node6</title>
<path fill="none" stroke="midnightblue" d="M753.86,-268.7C695.36,-263.55 578.68,-250.32 484,-221 482.13,-220.42 480.22,-219.75 478.32,-219.02"/>
<polygon fill="midnightblue" stroke="midnightblue" points="479.65,-215.78 469.08,-215.04 476.88,-222.21 479.65,-215.78"/>
</g>
<!-- Node29&#45;&gt;Node10 -->
<g id="edge64" class="edge">
<title>Node29&#45;&gt;Node10</title>
<path fill="none" stroke="midnightblue" d="M783.52,-262.68C763.89,-238.41 714.48,-169.32 746,-123 765.54,-94.29 804.16,-81.9 833.89,-76.56"/>
<polygon fill="midnightblue" stroke="midnightblue" points="834.67,-79.98 843.99,-74.95 833.56,-73.07 834.67,-79.98"/>
</g>
<!-- Node29&#45;&gt;Node25 -->
<g id="edge63" class="edge">
<title>Node29&#45;&gt;Node25</title>
<path fill="none" stroke="midnightblue" d="M773.07,-262.87C750.08,-251.8 709.97,-232.49 683.2,-219.6"/>
<polygon fill="midnightblue" stroke="midnightblue" points="684.53,-216.35 674,-215.17 681.49,-222.66 684.53,-216.35"/>
</g>
<!-- Node30 -->
<g id="node30" class="node">
<title>Node30</title>
<g id="a_node30"><a xlink:href="common_8h.html" target="_top" xlink:title=" ">
<polygon fill="white" stroke="black" points="754.5,-129 754.5,-148 845.5,-148 845.5,-129 754.5,-129"/>
<text text-anchor="middle" x="800" y="-136" font-family="Helvetica,sans-Serif" font-size="10.00">cppgc/common.h</text>
</a>
</g>
</g>
<!-- Node29&#45;&gt;Node30 -->
<g id="edge59" class="edge">
<title>Node29&#45;&gt;Node30</title>
<path fill="none" stroke="midnightblue" d="M791.59,-262.84C793.03,-241.67 796.76,-186.95 798.74,-158.03"/>
<polygon fill="midnightblue" stroke="midnightblue" points="802.23,-158.24 799.42,-148.02 795.25,-157.76 802.23,-158.24"/>
</g>
<!-- Node31 -->
<g id="node31" class="node">
<title>Node31</title>
<g id="a_node31"><a xlink:href="custom-space_8h.html" target="_top" xlink:title=" ">
<polygon fill="white" stroke="black" points="544.5,-129 544.5,-148 659.5,-148 659.5,-129 544.5,-129"/>
<text text-anchor="middle" x="602" y="-136" font-family="Helvetica,sans-Serif" font-size="10.00">cppgc/custom&#45;space.h</text>
</a>
</g>
</g>
<!-- Node29&#45;&gt;Node31 -->
<g id="edge61" class="edge">
<title>Node29&#45;&gt;Node31</title>
<path fill="none" stroke="midnightblue" d="M784.22,-262.9C771.23,-246.86 741.33,-212.03 710,-190 686.99,-173.82 657.98,-160.59 635.82,-151.73"/>
<polygon fill="midnightblue" stroke="midnightblue" points="637.06,-148.46 626.47,-148.09 634.52,-154.98 637.06,-148.46"/>
</g>
<!-- Node30&#45;&gt;Node10 -->
<g id="edge60" class="edge">
<title>Node30&#45;&gt;Node10</title>
<path fill="none" stroke="midnightblue" d="M809.98,-128.73C821.85,-118.31 841.89,-100.71 856.38,-87.97"/>
<polygon fill="midnightblue" stroke="midnightblue" points="858.97,-90.36 864.18,-81.13 854.36,-85.1 858.97,-90.36"/>
</g>
<!-- Node31&#45;&gt;Node18 -->
<g id="edge62" class="edge">
<title>Node31&#45;&gt;Node18</title>
<path fill="none" stroke="midnightblue" d="M579.96,-128.87C551.1,-117.57 500.35,-97.7 467.46,-84.82"/>
<polygon fill="midnightblue" stroke="midnightblue" points="468.46,-81.45 457.87,-81.06 465.91,-87.97 468.46,-81.45"/>
</g>
<!-- Node32&#45;&gt;Node2 -->
<g id="edge66" class="edge">
<title>Node32&#45;&gt;Node2</title>
<path fill="none" stroke="midnightblue" d="M959.73,-329.88C1026.59,-324.5 1148.62,-311.7 1185,-288 1273.22,-230.52 1283.61,-148.34 1233,-56 1225.49,-42.29 1211.8,-31.82 1199,-24.44"/>
<polygon fill="midnightblue" stroke="midnightblue" points="1200.41,-21.22 1189.94,-19.61 1197.12,-27.4 1200.41,-21.22"/>
</g>
<!-- Node32&#45;&gt;Node10 -->
<g id="edge71" class="edge">
<title>Node32&#45;&gt;Node10</title>
<path fill="none" stroke="midnightblue" d="M937.46,-324.38C952.77,-317.18 971.86,-305.29 981,-288 987.44,-275.82 983.67,-270.52 981,-257 968.54,-193.84 962.07,-176.32 926,-123 916.9,-109.54 903.75,-96.82 892.96,-87.51"/>
<polygon fill="midnightblue" stroke="midnightblue" points="895.19,-84.81 885.26,-81.1 890.71,-90.19 895.19,-84.81"/>
</g>
<!-- Node32&#45;&gt;Node12 -->
<g id="edge68" class="edge">
<title>Node32&#45;&gt;Node12</title>
<path fill="none" stroke="midnightblue" d="M878.9,-324.49C844.29,-316.09 790.71,-302.44 745,-288 676.05,-266.21 596.91,-235.64 554.56,-218.81"/>
<polygon fill="midnightblue" stroke="midnightblue" points="555.69,-215.5 545.1,-215.04 553.09,-222 555.69,-215.5"/>
</g>
<!-- Node32&#45;&gt;Node13 -->
<g id="edge70" class="edge">
<title>Node32&#45;&gt;Node13</title>
<path fill="none" stroke="midnightblue" d="M870.42,-325.22C809.38,-314.57 699.67,-295.43 632.21,-283.66"/>
<polygon fill="midnightblue" stroke="midnightblue" points="632.62,-280.18 622.16,-281.9 631.41,-287.07 632.62,-280.18"/>
</g>
<!-- Node32&#45;&gt;Node14 -->
<g id="edge69" class="edge">
<title>Node32&#45;&gt;Node14</title>
<path fill="none" stroke="midnightblue" d="M944.51,-324.48C975.15,-315.63 1023.89,-301.55 1062.39,-290.43"/>
<polygon fill="midnightblue" stroke="midnightblue" points="1063.81,-293.66 1072.45,-287.52 1061.87,-286.94 1063.81,-293.66"/>
</g>
<!-- Node33 -->
<g id="node33" class="node">
<title>Node33</title>
<g id="a_node33"><a xlink:title=" ">
<polygon fill="white" stroke="#bfbfbf" points="922.5,-263 922.5,-282 971.5,-282 971.5,-263 922.5,-263"/>
<text text-anchor="middle" x="947" y="-270" font-family="Helvetica,sans-Serif" font-size="10.00">cstddef</text>
</a>
</g>
</g>
<!-- Node32&#45;&gt;Node33 -->
<g id="edge67" class="edge">
<title>Node32&#45;&gt;Node33</title>
<path fill="none" stroke="midnightblue" d="M919.58,-324.48C924.24,-315.82 931.59,-302.15 937.51,-291.15"/>
<polygon fill="midnightblue" stroke="midnightblue" points="940.77,-292.47 942.42,-282.01 934.6,-289.16 940.77,-292.47"/>
</g>
</g>
</svg>
