<?xml version="1.0" encoding="UTF-8" standalone="no"?>
<!DOCTYPE svg PUBLIC "-//W3C//DTD SVG 1.1//EN"
 "http://www.w3.org/Graphics/SVG/1.1/DTD/svg11.dtd">
<!-- Generated by graphviz version 2.44.0 ()
 -->
<!-- Title: include/cppgc/member.h Pages: 1 -->
<svg width="446pt" height="285pt"
 viewBox="0.00 0.00 445.50 285.00" xmlns="http://www.w3.org/2000/svg" xmlns:xlink="http://www.w3.org/1999/xlink">
<g id="graph0" class="graph" transform="scale(1 1) rotate(0) translate(4 281)">
<title>include/cppgc/member.h</title>
<polygon fill="white" stroke="transparent" points="-4,4 -4,-281 441.5,-281 441.5,4 -4,4"/>
<!-- Node1 -->
<g id="node1" class="node">
<title>Node1</title>
<g id="a_node1"><a xlink:title=" ">
<polygon fill="#bfbfbf" stroke="black" points="162,-257.5 162,-276.5 284,-276.5 284,-257.5 162,-257.5"/>
<text text-anchor="middle" x="223" y="-264.5" font-family="Helvetica,sans-Serif" font-size="10.00">include/cppgc/member.h</text>
</a>
</g>
</g>
<!-- Node2 -->
<g id="node2" class="node">
<title>Node2</title>
<g id="a_node2"><a xlink:href="liveness-broker_8h.html" target="_top" xlink:title=" ">
<polygon fill="white" stroke="black" points="219,-190.5 219,-220.5 335,-220.5 335,-190.5 219,-190.5"/>
<text text-anchor="start" x="227" y="-208.5" font-family="Helvetica,sans-Serif" font-size="10.00">include/cppgc/liveness</text>
<text text-anchor="middle" x="277" y="-197.5" font-family="Helvetica,sans-Serif" font-size="10.00">&#45;broker.h</text>
</a>
</g>
</g>
<!-- Node1&#45;&gt;Node2 -->
<g id="edge1" class="edge">
<title>Node1&#45;&gt;Node2</title>
<path fill="none" stroke="midnightblue" d="M237.69,-249.81C246.01,-240.65 256.3,-229.3 264.27,-220.52"/>
<polygon fill="midnightblue" stroke="midnightblue" points="234.87,-247.72 230.74,-257.48 240.05,-252.42 234.87,-247.72"/>
</g>
<!-- Node3 -->
<g id="node3" class="node">
<title>Node3</title>
<g id="a_node3"><a xlink:href="visitor_8h.html" target="_top" xlink:title=" ">
<polygon fill="white" stroke="black" points="101.5,-129 101.5,-148 214.5,-148 214.5,-129 101.5,-129"/>
<text text-anchor="middle" x="158" y="-136" font-family="Helvetica,sans-Serif" font-size="10.00">include/cppgc/visitor.h</text>
</a>
</g>
</g>
<!-- Node1&#45;&gt;Node3 -->
<g id="edge10" class="edge">
<title>Node1&#45;&gt;Node3</title>
<path fill="none" stroke="midnightblue" d="M213.96,-248.4C199.85,-220.94 173.11,-168.9 162.5,-148.26"/>
<polygon fill="midnightblue" stroke="midnightblue" points="210.85,-250.01 218.53,-257.31 217.08,-246.81 210.85,-250.01"/>
</g>
<!-- Node2&#45;&gt;Node3 -->
<g id="edge2" class="edge">
<title>Node2&#45;&gt;Node3</title>
<path fill="none" stroke="midnightblue" d="M242.17,-185.47C219.45,-173.06 190.9,-157.47 173.57,-148.01"/>
<polygon fill="midnightblue" stroke="midnightblue" points="240.72,-188.67 251.18,-190.4 244.08,-182.53 240.72,-188.67"/>
</g>
<!-- Node7 -->
<g id="node7" class="node">
<title>Node7</title>
<g id="a_node7"><a xlink:href="prefinalizer-handler_8h.html" target="_top" xlink:title=" ">
<polygon fill="white" stroke="black" points="232.5,-123.5 232.5,-153.5 343.5,-153.5 343.5,-123.5 232.5,-123.5"/>
<text text-anchor="start" x="240.5" y="-141.5" font-family="Helvetica,sans-Serif" font-size="10.00">include/cppgc/internal</text>
<text text-anchor="middle" x="288" y="-130.5" font-family="Helvetica,sans-Serif" font-size="10.00">/prefinalizer&#45;handler.h</text>
</a>
</g>
</g>
<!-- Node2&#45;&gt;Node7 -->
<g id="edge7" class="edge">
<title>Node2&#45;&gt;Node7</title>
<path fill="none" stroke="midnightblue" d="M281.08,-180.4C282.61,-171.37 284.29,-161.41 285.62,-153.58"/>
<polygon fill="midnightblue" stroke="midnightblue" points="277.6,-179.95 279.39,-190.4 284.51,-181.12 277.6,-179.95"/>
</g>
<!-- Node8 -->
<g id="node8" class="node">
<title>Node8</title>
<g id="a_node8"><a xlink:href="prefinalizer_8h.html" target="_top" xlink:title=" ">
<polygon fill="white" stroke="black" points="304.5,-67.5 304.5,-86.5 437.5,-86.5 437.5,-67.5 304.5,-67.5"/>
<text text-anchor="middle" x="371" y="-74.5" font-family="Helvetica,sans-Serif" font-size="10.00">include/cppgc/prefinalizer.h</text>
</a>
</g>
</g>
<!-- Node2&#45;&gt;Node8 -->
<g id="edge9" class="edge">
<title>Node2&#45;&gt;Node8</title>
<path fill="none" stroke="midnightblue" d="M317.85,-185.17C330.82,-177.19 344.1,-166.78 353,-154 367.57,-133.08 370.45,-101.9 370.95,-86.81"/>
<polygon fill="midnightblue" stroke="midnightblue" points="315.88,-182.27 308.97,-190.3 319.38,-188.33 315.88,-182.27"/>
</g>
<!-- Node4 -->
<g id="node4" class="node">
<title>Node4</title>
<g id="a_node4"><a xlink:href="persistent_8h.html" target="_top" xlink:title=" ">
<polygon fill="white" stroke="black" points="0,-67.5 0,-86.5 130,-86.5 130,-67.5 0,-67.5"/>
<text text-anchor="middle" x="65" y="-74.5" font-family="Helvetica,sans-Serif" font-size="10.00">include/cppgc/persistent.h</text>
</a>
</g>
</g>
<!-- Node3&#45;&gt;Node4 -->
<g id="edge3" class="edge">
<title>Node3&#45;&gt;Node4</title>
<path fill="none" stroke="midnightblue" d="M136.01,-123.43C118.08,-111.96 93.34,-96.13 78.3,-86.51"/>
<polygon fill="midnightblue" stroke="midnightblue" points="134.37,-126.53 144.68,-128.98 138.14,-120.64 134.37,-126.53"/>
</g>
<!-- Node5 -->
<g id="node5" class="node">
<title>Node5</title>
<g id="a_node5"><a xlink:href="cross-thread-persistent_8h.html" target="_top" xlink:title=" ">
<polygon fill="white" stroke="black" points="59,-0.5 59,-30.5 163,-30.5 163,-0.5 59,-0.5"/>
<text text-anchor="start" x="67" y="-18.5" font-family="Helvetica,sans-Serif" font-size="10.00">include/cppgc/cross</text>
<text text-anchor="middle" x="111" y="-7.5" font-family="Helvetica,sans-Serif" font-size="10.00">&#45;thread&#45;persistent.h</text>
</a>
</g>
</g>
<!-- Node3&#45;&gt;Node5 -->
<g id="edge5" class="edge">
<title>Node3&#45;&gt;Node5</title>
<path fill="none" stroke="midnightblue" d="M154.18,-118.42C150.98,-104 145.83,-83.87 139,-67 133.81,-54.18 126.08,-40.5 120.05,-30.62"/>
<polygon fill="midnightblue" stroke="midnightblue" points="150.84,-119.53 156.33,-128.59 157.69,-118.09 150.84,-119.53"/>
</g>
<!-- Node6 -->
<g id="node6" class="node">
<title>Node6</title>
<g id="a_node6"><a xlink:href="v8-cppgc_8h.html" target="_top" xlink:title=" ">
<polygon fill="white" stroke="black" points="186,-67.5 186,-86.5 284,-86.5 284,-67.5 186,-67.5"/>
<text text-anchor="middle" x="235" y="-74.5" font-family="Helvetica,sans-Serif" font-size="10.00">include/v8&#45;cppgc.h</text>
</a>
</g>
</g>
<!-- Node3&#45;&gt;Node6 -->
<g id="edge6" class="edge">
<title>Node3&#45;&gt;Node6</title>
<path fill="none" stroke="midnightblue" d="M177.03,-122.79C191.8,-111.38 211.76,-95.96 223.99,-86.51"/>
<polygon fill="midnightblue" stroke="midnightblue" points="174.81,-120.09 169.03,-128.98 179.09,-125.63 174.81,-120.09"/>
</g>
<!-- Node4&#45;&gt;Node5 -->
<g id="edge4" class="edge">
<title>Node4&#45;&gt;Node5</title>
<path fill="none" stroke="midnightblue" d="M77.73,-59.53C84.78,-50.42 93.44,-39.21 100.16,-30.52"/>
<polygon fill="midnightblue" stroke="midnightblue" points="74.94,-57.42 71.59,-67.48 80.48,-61.7 74.94,-57.42"/>
</g>
<!-- Node7&#45;&gt;Node8 -->
<g id="edge8" class="edge">
<title>Node7&#45;&gt;Node8</title>
<path fill="none" stroke="midnightblue" d="M315.92,-117.48C330.54,-107 347.69,-94.71 358.92,-86.66"/>
<polygon fill="midnightblue" stroke="midnightblue" points="313.76,-114.73 307.67,-123.4 317.84,-120.42 313.76,-114.73"/>
</g>
</g>
</svg>
