<?xml version="1.0" encoding="UTF-8" standalone="no"?>
<!DOCTYPE svg PUBLIC "-//W3C//DTD SVG 1.1//EN"
 "http://www.w3.org/Graphics/SVG/1.1/DTD/svg11.dtd">
<!-- Generated by graphviz version 2.44.0 ()
 -->
<!-- Title: include/cppgc/source&#45;location.h Pages: 1 -->
<svg width="655pt" height="419pt"
 viewBox="0.00 0.00 654.88 419.00" xmlns="http://www.w3.org/2000/svg" xmlns:xlink="http://www.w3.org/1999/xlink">
<g id="graph0" class="graph" transform="scale(1 1) rotate(0) translate(4 415)">
<title>include/cppgc/source&#45;location.h</title>
<polygon fill="white" stroke="transparent" points="-4,4 -4,-415 650.88,-415 650.88,4 -4,4"/>
<!-- Node1 -->
<g id="node1" class="node">
<title>Node1</title>
<g id="a_node1"><a xlink:title=" ">
<polygon fill="#bfbfbf" stroke="black" points="196.38,-380.5 196.38,-410.5 305.38,-410.5 305.38,-380.5 196.38,-380.5"/>
<text text-anchor="start" x="204.38" y="-398.5" font-family="Helvetica,sans-Serif" font-size="10.00">include/cppgc/source</text>
<text text-anchor="middle" x="250.88" y="-387.5" font-family="Helvetica,sans-Serif" font-size="10.00">&#45;location.h</text>
</a>
</g>
</g>
<!-- Node2 -->
<g id="node2" class="node">
<title>Node2</title>
<g id="a_node2"><a xlink:href="logging_8h.html" target="_top" xlink:title=" ">
<polygon fill="white" stroke="black" points="132.38,-190.5 132.38,-220.5 243.38,-220.5 243.38,-190.5 132.38,-190.5"/>
<text text-anchor="start" x="140.38" y="-208.5" font-family="Helvetica,sans-Serif" font-size="10.00">include/cppgc/internal</text>
<text text-anchor="middle" x="187.88" y="-197.5" font-family="Helvetica,sans-Serif" font-size="10.00">/logging.h</text>
</a>
</g>
</g>
<!-- Node1&#45;&gt;Node2 -->
<g id="edge1" class="edge">
<title>Node1&#45;&gt;Node2</title>
<path fill="none" stroke="midnightblue" d="M242.92,-370.72C229.62,-331.04 203.3,-252.51 192.59,-220.54"/>
<polygon fill="midnightblue" stroke="midnightblue" points="239.65,-372 246.15,-380.37 246.29,-369.78 239.65,-372"/>
</g>
<!-- Node5 -->
<g id="node5" class="node">
<title>Node5</title>
<g id="a_node5"><a xlink:href="persistent_8h.html" target="_top" xlink:title=" ">
<polygon fill="white" stroke="black" points="165.88,-67.5 165.88,-86.5 295.88,-86.5 295.88,-67.5 165.88,-67.5"/>
<text text-anchor="middle" x="230.88" y="-74.5" font-family="Helvetica,sans-Serif" font-size="10.00">include/cppgc/persistent.h</text>
</a>
</g>
</g>
<!-- Node1&#45;&gt;Node5 -->
<g id="edge22" class="edge">
<title>Node1&#45;&gt;Node5</title>
<path fill="none" stroke="midnightblue" d="M186.09,-389.26C112.31,-379.33 1.88,-350.66 1.88,-268 1.88,-268 1.88,-268 1.88,-204.5 1.88,-167.31 -5.65,-149.06 20.88,-123 41.2,-103.05 112.04,-90.88 165.87,-84.32"/>
<polygon fill="midnightblue" stroke="midnightblue" points="185.88,-392.76 196.24,-390.54 186.76,-385.81 185.88,-392.76"/>
</g>
<!-- Node6 -->
<g id="node6" class="node">
<title>Node6</title>
<g id="a_node6"><a xlink:href="visitor_8h.html" target="_top" xlink:title=" ">
<polygon fill="white" stroke="black" points="338.38,-129 338.38,-148 451.38,-148 451.38,-129 338.38,-129"/>
<text text-anchor="middle" x="394.88" y="-136" font-family="Helvetica,sans-Serif" font-size="10.00">include/cppgc/visitor.h</text>
</a>
</g>
</g>
<!-- Node1&#45;&gt;Node6 -->
<g id="edge23" class="edge">
<title>Node1&#45;&gt;Node6</title>
<path fill="none" stroke="midnightblue" d="M263.83,-371.57C294.41,-317.42 370.05,-183.48 390,-148.16"/>
<polygon fill="midnightblue" stroke="midnightblue" points="260.7,-370 258.83,-380.43 266.8,-373.44 260.7,-370"/>
</g>
<!-- Node9 -->
<g id="node9" class="node">
<title>Node9</title>
<g id="a_node9"><a xlink:href="pointer-policies_8h.html" target="_top" xlink:title=" ">
<polygon fill="white" stroke="black" points="312.38,-313.5 312.38,-343.5 423.38,-343.5 423.38,-313.5 312.38,-313.5"/>
<text text-anchor="start" x="320.38" y="-331.5" font-family="Helvetica,sans-Serif" font-size="10.00">include/cppgc/internal</text>
<text text-anchor="middle" x="367.88" y="-320.5" font-family="Helvetica,sans-Serif" font-size="10.00">/pointer&#45;policies.h</text>
</a>
</g>
</g>
<!-- Node1&#45;&gt;Node9 -->
<g id="edge11" class="edge">
<title>Node1&#45;&gt;Node9</title>
<path fill="none" stroke="midnightblue" d="M285.2,-375.44C303.56,-365.24 325.77,-352.9 342.55,-343.58"/>
<polygon fill="midnightblue" stroke="midnightblue" points="283.31,-372.48 276.27,-380.4 286.71,-378.6 283.31,-372.48"/>
</g>
<!-- Node3 -->
<g id="node3" class="node">
<title>Node3</title>
<g id="a_node3"><a xlink:href="persistent-node_8h.html" target="_top" xlink:title=" ">
<polygon fill="white" stroke="black" points="30.38,-123.5 30.38,-153.5 141.38,-153.5 141.38,-123.5 30.38,-123.5"/>
<text text-anchor="start" x="38.38" y="-141.5" font-family="Helvetica,sans-Serif" font-size="10.00">include/cppgc/internal</text>
<text text-anchor="middle" x="85.88" y="-130.5" font-family="Helvetica,sans-Serif" font-size="10.00">/persistent&#45;node.h</text>
</a>
</g>
</g>
<!-- Node2&#45;&gt;Node3 -->
<g id="edge2" class="edge">
<title>Node2&#45;&gt;Node3</title>
<path fill="none" stroke="midnightblue" d="M157.31,-185.02C141.43,-174.9 122.4,-162.77 107.97,-153.58"/>
<polygon fill="midnightblue" stroke="midnightblue" points="155.44,-187.97 165.75,-190.4 159.2,-182.07 155.44,-187.97"/>
</g>
<!-- Node2&#45;&gt;Node6 -->
<g id="edge6" class="edge">
<title>Node2&#45;&gt;Node6</title>
<path fill="none" stroke="midnightblue" d="M242.25,-187.43C282.61,-174.75 335.97,-158 367.72,-148.03"/>
<polygon fill="midnightblue" stroke="midnightblue" points="241.04,-184.14 232.54,-190.48 243.13,-190.82 241.04,-184.14"/>
</g>
<!-- Node8 -->
<g id="node8" class="node">
<title>Node8</title>
<g id="a_node8"><a xlink:href="caged-heap-local-data_8h.html" target="_top" xlink:title=" ">
<polygon fill="white" stroke="black" points="159.88,-123.5 159.88,-153.5 281.88,-153.5 281.88,-123.5 159.88,-123.5"/>
<text text-anchor="start" x="167.88" y="-141.5" font-family="Helvetica,sans-Serif" font-size="10.00">include/cppgc/internal</text>
<text text-anchor="middle" x="220.88" y="-130.5" font-family="Helvetica,sans-Serif" font-size="10.00">/caged&#45;heap&#45;local&#45;data.h</text>
</a>
</g>
</g>
<!-- Node2&#45;&gt;Node8 -->
<g id="edge10" class="edge">
<title>Node2&#45;&gt;Node8</title>
<path fill="none" stroke="midnightblue" d="M199.67,-181.28C204.37,-172.02 209.63,-161.66 213.74,-153.58"/>
<polygon fill="midnightblue" stroke="midnightblue" points="196.45,-179.89 195.04,-190.4 202.69,-183.06 196.45,-179.89"/>
</g>
<!-- Node4 -->
<g id="node4" class="node">
<title>Node4</title>
<g id="a_node4"><a xlink:href="cross-thread-persistent_8h.html" target="_top" xlink:title=" ">
<polygon fill="white" stroke="black" points="224.88,-0.5 224.88,-30.5 328.88,-30.5 328.88,-0.5 224.88,-0.5"/>
<text text-anchor="start" x="232.88" y="-18.5" font-family="Helvetica,sans-Serif" font-size="10.00">include/cppgc/cross</text>
<text text-anchor="middle" x="276.88" y="-7.5" font-family="Helvetica,sans-Serif" font-size="10.00">&#45;thread&#45;persistent.h</text>
</a>
</g>
</g>
<!-- Node3&#45;&gt;Node4 -->
<g id="edge3" class="edge">
<title>Node3&#45;&gt;Node4</title>
<path fill="none" stroke="midnightblue" d="M103.94,-115.55C117.32,-100.37 136.67,-80.54 156.88,-67 180.08,-51.47 208.82,-39.17 232.36,-30.6"/>
<polygon fill="midnightblue" stroke="midnightblue" points="101.02,-113.57 97.16,-123.44 106.33,-118.14 101.02,-113.57"/>
</g>
<!-- Node3&#45;&gt;Node5 -->
<g id="edge4" class="edge">
<title>Node3&#45;&gt;Node5</title>
<path fill="none" stroke="midnightblue" d="M129.71,-119.52C156.24,-108.63 188.88,-95.23 209.78,-86.66"/>
<polygon fill="midnightblue" stroke="midnightblue" points="128.17,-116.37 120.25,-123.4 130.83,-122.84 128.17,-116.37"/>
</g>
<!-- Node5&#45;&gt;Node4 -->
<g id="edge5" class="edge">
<title>Node5&#45;&gt;Node4</title>
<path fill="none" stroke="midnightblue" d="M243.62,-59.53C250.66,-50.42 259.32,-39.21 266.04,-30.52"/>
<polygon fill="midnightblue" stroke="midnightblue" points="240.82,-57.42 237.47,-67.48 246.36,-61.7 240.82,-57.42"/>
</g>
<!-- Node6&#45;&gt;Node4 -->
<g id="edge8" class="edge">
<title>Node6&#45;&gt;Node4</title>
<path fill="none" stroke="midnightblue" d="M378.05,-121.55C367.78,-111.71 354.43,-98.76 342.88,-87 324.09,-67.86 303.01,-45.1 289.84,-30.73"/>
<polygon fill="midnightblue" stroke="midnightblue" points="375.9,-124.32 385.55,-128.69 380.73,-119.26 375.9,-124.32"/>
</g>
<!-- Node6&#45;&gt;Node5 -->
<g id="edge7" class="edge">
<title>Node6&#45;&gt;Node5</title>
<path fill="none" stroke="midnightblue" d="M361.62,-125.43C329.75,-113.87 282.45,-96.71 254.34,-86.51"/>
<polygon fill="midnightblue" stroke="midnightblue" points="360.79,-128.85 371.39,-128.98 363.18,-122.27 360.79,-128.85"/>
</g>
<!-- Node7 -->
<g id="node7" class="node">
<title>Node7</title>
<g id="a_node7"><a xlink:href="v8-cppgc_8h.html" target="_top" xlink:title=" ">
<polygon fill="white" stroke="black" points="351.88,-67.5 351.88,-86.5 449.88,-86.5 449.88,-67.5 351.88,-67.5"/>
<text text-anchor="middle" x="400.88" y="-74.5" font-family="Helvetica,sans-Serif" font-size="10.00">include/v8&#45;cppgc.h</text>
</a>
</g>
</g>
<!-- Node6&#45;&gt;Node7 -->
<g id="edge9" class="edge">
<title>Node6&#45;&gt;Node7</title>
<path fill="none" stroke="midnightblue" d="M396.77,-118.82C397.86,-108 399.18,-94.9 400.03,-86.51"/>
<polygon fill="midnightblue" stroke="midnightblue" points="393.26,-118.67 395.74,-128.98 400.23,-119.38 393.26,-118.67"/>
</g>
<!-- Node9&#45;&gt;Node4 -->
<g id="edge12" class="edge">
<title>Node9&#45;&gt;Node4</title>
<path fill="none" stroke="midnightblue" d="M433.73,-326.59C516.22,-321.56 646.88,-299 646.88,-206.5 646.88,-206.5 646.88,-206.5 646.88,-137.5 646.88,-103.45 643.83,-87.82 616.88,-67 572.91,-33.02 412.96,-21.75 329.06,-18.14"/>
<polygon fill="midnightblue" stroke="midnightblue" points="433.47,-323.1 423.67,-327.13 433.85,-330.09 433.47,-323.1"/>
</g>
<!-- Node9&#45;&gt;Node5 -->
<g id="edge13" class="edge">
<title>Node9&#45;&gt;Node5</title>
<path fill="none" stroke="midnightblue" d="M363.38,-303.22C354.89,-262.59 333.43,-179.7 290.88,-123 279.08,-107.27 260.33,-94.44 246.93,-86.56"/>
<polygon fill="midnightblue" stroke="midnightblue" points="360,-304.16 365.39,-313.28 366.86,-302.78 360,-304.16"/>
</g>
<!-- Node9&#45;&gt;Node6 -->
<g id="edge14" class="edge">
<title>Node9&#45;&gt;Node6</title>
<path fill="none" stroke="midnightblue" d="M371.35,-303.39C377.41,-261.16 389.69,-175.67 393.63,-148.21"/>
<polygon fill="midnightblue" stroke="midnightblue" points="367.87,-302.97 369.91,-313.37 374.8,-303.97 367.87,-302.97"/>
</g>
<!-- Node10 -->
<g id="node10" class="node">
<title>Node10</title>
<g id="a_node10"><a xlink:href="member_8h.html" target="_top" xlink:title=" ">
<polygon fill="white" stroke="black" points="395.88,-257.5 395.88,-276.5 517.88,-276.5 517.88,-257.5 395.88,-257.5"/>
<text text-anchor="middle" x="456.88" y="-264.5" font-family="Helvetica,sans-Serif" font-size="10.00">include/cppgc/member.h</text>
</a>
</g>
</g>
<!-- Node9&#45;&gt;Node10 -->
<g id="edge15" class="edge">
<title>Node9&#45;&gt;Node10</title>
<path fill="none" stroke="midnightblue" d="M397.39,-307.78C413.16,-297.23 431.78,-284.78 443.93,-276.66"/>
<polygon fill="midnightblue" stroke="midnightblue" points="395.34,-304.93 388.98,-313.4 399.23,-310.75 395.34,-304.93"/>
</g>
<!-- Node10&#45;&gt;Node6 -->
<g id="edge21" class="edge">
<title>Node10&#45;&gt;Node6</title>
<path fill="none" stroke="midnightblue" d="M448.08,-248.04C434.58,-220.48 409.25,-168.81 399.18,-148.26"/>
<polygon fill="midnightblue" stroke="midnightblue" points="445.08,-249.87 452.62,-257.31 451.36,-246.79 445.08,-249.87"/>
</g>
<!-- Node11 -->
<g id="node11" class="node">
<title>Node11</title>
<g id="a_node11"><a xlink:href="liveness-broker_8h.html" target="_top" xlink:title=" ">
<polygon fill="white" stroke="black" points="444.88,-190.5 444.88,-220.5 560.88,-220.5 560.88,-190.5 444.88,-190.5"/>
<text text-anchor="start" x="452.88" y="-208.5" font-family="Helvetica,sans-Serif" font-size="10.00">include/cppgc/liveness</text>
<text text-anchor="middle" x="502.88" y="-197.5" font-family="Helvetica,sans-Serif" font-size="10.00">&#45;broker.h</text>
</a>
</g>
</g>
<!-- Node10&#45;&gt;Node11 -->
<g id="edge16" class="edge">
<title>Node10&#45;&gt;Node11</title>
<path fill="none" stroke="midnightblue" d="M469.62,-249.53C476.66,-240.42 485.32,-229.21 492.04,-220.52"/>
<polygon fill="midnightblue" stroke="midnightblue" points="466.82,-247.42 463.47,-257.48 472.36,-251.7 466.82,-247.42"/>
</g>
<!-- Node11&#45;&gt;Node6 -->
<g id="edge17" class="edge">
<title>Node11&#45;&gt;Node6</title>
<path fill="none" stroke="midnightblue" d="M470.72,-185.14C450.19,-172.79 424.6,-157.39 409.02,-148.01"/>
<polygon fill="midnightblue" stroke="midnightblue" points="469.08,-188.24 479.45,-190.4 472.69,-182.24 469.08,-188.24"/>
</g>
<!-- Node12 -->
<g id="node12" class="node">
<title>Node12</title>
<g id="a_node12"><a xlink:href="prefinalizer-handler_8h.html" target="_top" xlink:title=" ">
<polygon fill="white" stroke="black" points="469.38,-123.5 469.38,-153.5 580.38,-153.5 580.38,-123.5 469.38,-123.5"/>
<text text-anchor="start" x="477.38" y="-141.5" font-family="Helvetica,sans-Serif" font-size="10.00">include/cppgc/internal</text>
<text text-anchor="middle" x="524.88" y="-130.5" font-family="Helvetica,sans-Serif" font-size="10.00">/prefinalizer&#45;handler.h</text>
</a>
</g>
</g>
<!-- Node11&#45;&gt;Node12 -->
<g id="edge18" class="edge">
<title>Node11&#45;&gt;Node12</title>
<path fill="none" stroke="midnightblue" d="M510.94,-180.7C514.02,-171.59 517.44,-161.49 520.12,-153.58"/>
<polygon fill="midnightblue" stroke="midnightblue" points="507.55,-179.8 507.66,-190.4 514.18,-182.05 507.55,-179.8"/>
</g>
<!-- Node13 -->
<g id="node13" class="node">
<title>Node13</title>
<g id="a_node13"><a xlink:href="prefinalizer_8h.html" target="_top" xlink:title=" ">
<polygon fill="white" stroke="black" points="474.38,-67.5 474.38,-86.5 607.38,-86.5 607.38,-67.5 474.38,-67.5"/>
<text text-anchor="middle" x="540.88" y="-74.5" font-family="Helvetica,sans-Serif" font-size="10.00">include/cppgc/prefinalizer.h</text>
</a>
</g>
</g>
<!-- Node11&#45;&gt;Node13 -->
<g id="edge20" class="edge">
<title>Node11&#45;&gt;Node13</title>
<path fill="none" stroke="midnightblue" d="M554.23,-185.66C567.91,-178.02 581.05,-167.68 588.88,-154 595.73,-142.04 594.36,-135.64 588.88,-123 582.07,-107.28 566.76,-94.53 555.25,-86.67"/>
<polygon fill="midnightblue" stroke="midnightblue" points="552.5,-182.61 545.21,-190.3 555.7,-188.84 552.5,-182.61"/>
</g>
<!-- Node12&#45;&gt;Node13 -->
<g id="edge19" class="edge">
<title>Node12&#45;&gt;Node13</title>
<path fill="none" stroke="midnightblue" d="M531.31,-113.59C533.87,-104.08 536.65,-93.73 538.56,-86.66"/>
<polygon fill="midnightblue" stroke="midnightblue" points="527.89,-112.83 528.68,-123.4 534.65,-114.65 527.89,-112.83"/>
</g>
</g>
</svg>
