<?xml version="1.0" encoding="UTF-8" standalone="no"?>
<!DOCTYPE svg PUBLIC "-//W3C//DTD SVG 1.1//EN"
 "http://www.w3.org/Graphics/SVG/1.1/DTD/svg11.dtd">
<!-- Generated by graphviz version 2.44.0 ()
 -->
<!-- Title: cppgc::internal::TraceTraitBase::Trace Pages: 1 -->
<svg width="312pt" height="88pt"
 viewBox="0.00 0.00 312.00 88.00" xmlns="http://www.w3.org/2000/svg" xmlns:xlink="http://www.w3.org/1999/xlink">
<g id="graph0" class="graph" transform="scale(1 1) rotate(0) translate(4 84)">
<title>cppgc::internal::TraceTraitBase::Trace</title>
<polygon fill="white" stroke="transparent" points="-4,4 -4,-84 308,-84 308,4 -4,4"/>
<!-- Node1 -->
<g id="node1" class="node">
<title>Node1</title>
<g id="a_node1"><a xlink:title=" ">
<polygon fill="#bfbfbf" stroke="black" points="176,-30 176,-60 304,-60 304,-30 176,-30"/>
<text text-anchor="start" x="184" y="-48" font-family="Helvetica,sans-Serif" font-size="10.00">cppgc::internal::TraceTrait</text>
<text text-anchor="middle" x="240" y="-37" font-family="Helvetica,sans-Serif" font-size="10.00">Base::Trace</text>
</a>
</g>
</g>
<!-- Node2 -->
<g id="node2" class="node">
<title>Node2</title>
<g id="a_node2"><a xlink:href="classcppgc_1_1Visitor.html#a83e810379a6baf5fa4aef855f1536efc" target="_top" xlink:title=" ">
<polygon fill="white" stroke="black" points="18,-60.5 18,-79.5 122,-79.5 122,-60.5 18,-60.5"/>
<text text-anchor="middle" x="70" y="-67.5" font-family="Helvetica,sans-Serif" font-size="10.00">cppgc::Visitor::Trace</text>
</a>
</g>
</g>
<!-- Node1&#45;&gt;Node2 -->
<g id="edge1" class="edge">
<title>Node1&#45;&gt;Node2</title>
<path fill="none" stroke="midnightblue" d="M165.84,-55.89C151.09,-58.08 135.87,-60.35 122.07,-62.4"/>
<polygon fill="midnightblue" stroke="midnightblue" points="166.59,-59.31 175.97,-54.38 165.56,-52.39 166.59,-59.31"/>
</g>
<!-- Node3 -->
<g id="node3" class="node">
<title>Node3</title>
<g id="a_node3"><a xlink:href="structcppgc_1_1TraceTrait_3_01v8_1_1internal_1_1JSMemberBase_01_4.html#a3fa809c53525a828050247e84346be70" target="_top" xlink:title=" ">
<polygon fill="white" stroke="black" points="0,-0.5 0,-41.5 140,-41.5 140,-0.5 0,-0.5"/>
<text text-anchor="start" x="8" y="-29.5" font-family="Helvetica,sans-Serif" font-size="10.00">cppgc::TraceTrait&lt;</text>
<text text-anchor="start" x="8" y="-18.5" font-family="Helvetica,sans-Serif" font-size="10.00"> v8::internal::JSMemberBase</text>
<text text-anchor="middle" x="70" y="-7.5" font-family="Helvetica,sans-Serif" font-size="10.00"> &gt;::Trace</text>
</a>
</g>
</g>
<!-- Node1&#45;&gt;Node3 -->
<g id="edge2" class="edge">
<title>Node1&#45;&gt;Node3</title>
<path fill="none" stroke="midnightblue" d="M165.95,-34.56C157.34,-33.33 148.57,-32.08 140.02,-30.86"/>
<polygon fill="midnightblue" stroke="midnightblue" points="165.57,-38.05 175.97,-36 166.56,-31.12 165.57,-38.05"/>
</g>
</g>
</svg>
