<?xml version="1.0" encoding="UTF-8" standalone="no"?>
<!DOCTYPE svg PUBLIC "-//W3C//DTD SVG 1.1//EN"
 "http://www.w3.org/Graphics/SVG/1.1/DTD/svg11.dtd">
<!-- Generated by graphviz version 2.44.0 ()
 -->
<!-- Title: include/cppgc/type&#45;traits.h Pages: 1 -->
<svg width="622pt" height="363pt"
 viewBox="0.00 0.00 621.87 363.00" xmlns="http://www.w3.org/2000/svg" xmlns:xlink="http://www.w3.org/1999/xlink">
<g id="graph0" class="graph" transform="scale(1 1) rotate(0) translate(4 359)">
<title>include/cppgc/type&#45;traits.h</title>
<polygon fill="white" stroke="transparent" points="-4,4 -4,-359 617.87,-359 617.87,4 -4,4"/>
<!-- Node1 -->
<g id="node1" class="node">
<title>Node1</title>
<g id="a_node1"><a xlink:title=" ">
<polygon fill="#bfbfbf" stroke="black" points="151.37,-324.5 151.37,-354.5 249.37,-354.5 249.37,-324.5 151.37,-324.5"/>
<text text-anchor="start" x="159.37" y="-342.5" font-family="Helvetica,sans-Serif" font-size="10.00">include/cppgc/type</text>
<text text-anchor="middle" x="200.37" y="-331.5" font-family="Helvetica,sans-Serif" font-size="10.00">&#45;traits.h</text>
</a>
</g>
</g>
<!-- Node2 -->
<g id="node2" class="node">
<title>Node2</title>
<g id="a_node2"><a xlink:href="trace-trait_8h.html" target="_top" xlink:title=" ">
<polygon fill="white" stroke="black" points="228.87,-257.5 228.87,-287.5 329.87,-287.5 329.87,-257.5 228.87,-257.5"/>
<text text-anchor="start" x="236.87" y="-275.5" font-family="Helvetica,sans-Serif" font-size="10.00">include/cppgc/trace</text>
<text text-anchor="middle" x="279.37" y="-264.5" font-family="Helvetica,sans-Serif" font-size="10.00">&#45;trait.h</text>
</a>
</g>
</g>
<!-- Node1&#45;&gt;Node2 -->
<g id="edge1" class="edge">
<title>Node1&#45;&gt;Node2</title>
<path fill="none" stroke="midnightblue" d="M225.43,-317.88C237.43,-308.01 251.5,-296.43 262.26,-287.58"/>
<polygon fill="midnightblue" stroke="midnightblue" points="223.01,-315.34 217.51,-324.4 227.46,-320.75 223.01,-315.34"/>
</g>
<!-- Node3 -->
<g id="node3" class="node">
<title>Node3</title>
<g id="a_node3"><a xlink:href="garbage-collected_8h.html" target="_top" xlink:title=" ">
<polygon fill="white" stroke="black" points="155.37,-190.5 155.37,-220.5 269.37,-220.5 269.37,-190.5 155.37,-190.5"/>
<text text-anchor="start" x="163.37" y="-208.5" font-family="Helvetica,sans-Serif" font-size="10.00">include/cppgc/garbage</text>
<text text-anchor="middle" x="212.37" y="-197.5" font-family="Helvetica,sans-Serif" font-size="10.00">&#45;collected.h</text>
</a>
</g>
</g>
<!-- Node1&#45;&gt;Node3 -->
<g id="edge20" class="edge">
<title>Node1&#45;&gt;Node3</title>
<path fill="none" stroke="midnightblue" d="M202.56,-314.39C205.06,-286.9 209.06,-242.89 211.09,-220.52"/>
<polygon fill="midnightblue" stroke="midnightblue" points="199.07,-314.1 201.65,-324.37 206.04,-314.73 199.07,-314.1"/>
</g>
<!-- Node6 -->
<g id="node6" class="node">
<title>Node6</title>
<g id="a_node6"><a xlink:href="persistent_8h.html" target="_top" xlink:title=" ">
<polygon fill="white" stroke="black" points="100.37,-67.5 100.37,-86.5 230.37,-86.5 230.37,-67.5 100.37,-67.5"/>
<text text-anchor="middle" x="165.37" y="-74.5" font-family="Helvetica,sans-Serif" font-size="10.00">include/cppgc/persistent.h</text>
</a>
</g>
</g>
<!-- Node1&#45;&gt;Node6 -->
<g id="edge23" class="edge">
<title>Node1&#45;&gt;Node6</title>
<path fill="none" stroke="midnightblue" d="M140.83,-336.36C103.23,-331.74 56.58,-319.44 28.37,-288 8.17,-265.48 19.94,-251.04 16.37,-221 11.22,-177.71 -13.75,-157.9 12.37,-123 24.64,-106.6 73.86,-94.12 113.21,-86.51"/>
<polygon fill="midnightblue" stroke="midnightblue" points="140.86,-339.88 151.18,-337.46 141.61,-332.92 140.86,-339.88"/>
</g>
<!-- Node14 -->
<g id="node14" class="node">
<title>Node14</title>
<g id="a_node14"><a xlink:href="finalizer-trait_8h.html" target="_top" xlink:title=" ">
<polygon fill="white" stroke="black" points="37.87,-257.5 37.87,-287.5 148.87,-287.5 148.87,-257.5 37.87,-257.5"/>
<text text-anchor="start" x="45.87" y="-275.5" font-family="Helvetica,sans-Serif" font-size="10.00">include/cppgc/internal</text>
<text text-anchor="middle" x="93.37" y="-264.5" font-family="Helvetica,sans-Serif" font-size="10.00">/finalizer&#45;trait.h</text>
</a>
</g>
</g>
<!-- Node1&#45;&gt;Node14 -->
<g id="edge21" class="edge">
<title>Node1&#45;&gt;Node14</title>
<path fill="none" stroke="midnightblue" d="M168.29,-319.02C151.64,-308.9 131.67,-296.77 116.54,-287.58"/>
<polygon fill="midnightblue" stroke="midnightblue" points="166.79,-322.2 177.15,-324.4 170.42,-316.21 166.79,-322.2"/>
</g>
<!-- Node15 -->
<g id="node15" class="node">
<title>Node15</title>
<g id="a_node15"><a xlink:href="member_8h.html" target="_top" xlink:title=" ">
<polygon fill="white" stroke="black" points="348.37,-263 348.37,-282 470.37,-282 470.37,-263 348.37,-263"/>
<text text-anchor="middle" x="409.37" y="-270" font-family="Helvetica,sans-Serif" font-size="10.00">include/cppgc/member.h</text>
</a>
</g>
</g>
<!-- Node1&#45;&gt;Node15 -->
<g id="edge24" class="edge">
<title>Node1&#45;&gt;Node15</title>
<path fill="none" stroke="midnightblue" d="M255.26,-321.43C296.01,-308.75 349.88,-292 381.95,-282.03"/>
<polygon fill="midnightblue" stroke="midnightblue" points="253.97,-318.16 245.46,-324.48 256.05,-324.85 253.97,-318.16"/>
</g>
<!-- Node2&#45;&gt;Node3 -->
<g id="edge2" class="edge">
<title>Node2&#45;&gt;Node3</title>
<path fill="none" stroke="midnightblue" d="M257.53,-250.31C247.48,-240.56 235.83,-229.26 226.88,-220.58"/>
<polygon fill="midnightblue" stroke="midnightblue" points="255.22,-252.94 264.83,-257.4 260.09,-247.92 255.22,-252.94"/>
</g>
<!-- Node5 -->
<g id="node5" class="node">
<title>Node5</title>
<g id="a_node5"><a xlink:href="visitor_8h.html" target="_top" xlink:title=" ">
<polygon fill="white" stroke="black" points="296.87,-129 296.87,-148 409.87,-148 409.87,-129 296.87,-129"/>
<text text-anchor="middle" x="353.37" y="-136" font-family="Helvetica,sans-Serif" font-size="10.00">include/cppgc/visitor.h</text>
</a>
</g>
</g>
<!-- Node2&#45;&gt;Node5 -->
<g id="edge19" class="edge">
<title>Node2&#45;&gt;Node5</title>
<path fill="none" stroke="midnightblue" d="M292.27,-248.49C308.98,-218.68 337.29,-168.17 348.55,-148.1"/>
<polygon fill="midnightblue" stroke="midnightblue" points="289.12,-246.94 287.29,-257.37 295.23,-250.36 289.12,-246.94"/>
</g>
<!-- Node9 -->
<g id="node9" class="node">
<title>Node9</title>
<g id="a_node9"><a xlink:href="gc-info_8h.html" target="_top" xlink:title=" ">
<polygon fill="white" stroke="black" points="25.87,-190.5 25.87,-220.5 136.87,-220.5 136.87,-190.5 25.87,-190.5"/>
<text text-anchor="start" x="33.87" y="-208.5" font-family="Helvetica,sans-Serif" font-size="10.00">include/cppgc/internal</text>
<text text-anchor="middle" x="81.37" y="-197.5" font-family="Helvetica,sans-Serif" font-size="10.00">/gc&#45;info.h</text>
</a>
</g>
</g>
<!-- Node2&#45;&gt;Node9 -->
<g id="edge9" class="edge">
<title>Node2&#45;&gt;Node9</title>
<path fill="none" stroke="midnightblue" d="M226.75,-254.23C194.73,-243.71 154.33,-230.45 124.25,-220.58"/>
<polygon fill="midnightblue" stroke="midnightblue" points="225.81,-257.6 236.41,-257.4 228,-250.95 225.81,-257.6"/>
</g>
<!-- Node10 -->
<g id="node10" class="node">
<title>Node10</title>
<g id="a_node10"><a xlink:href="persistent-node_8h.html" target="_top" xlink:title=" ">
<polygon fill="white" stroke="black" points="167.87,-123.5 167.87,-153.5 278.87,-153.5 278.87,-123.5 167.87,-123.5"/>
<text text-anchor="start" x="175.87" y="-141.5" font-family="Helvetica,sans-Serif" font-size="10.00">include/cppgc/internal</text>
<text text-anchor="middle" x="223.37" y="-130.5" font-family="Helvetica,sans-Serif" font-size="10.00">/persistent&#45;node.h</text>
</a>
</g>
</g>
<!-- Node2&#45;&gt;Node10 -->
<g id="edge11" class="edge">
<title>Node2&#45;&gt;Node10</title>
<path fill="none" stroke="midnightblue" d="M283.98,-247.11C286,-230.32 286.37,-207.91 278.37,-190 271.65,-174.97 258.06,-162.42 246.08,-153.6"/>
<polygon fill="midnightblue" stroke="midnightblue" points="280.48,-246.82 282.48,-257.22 287.41,-247.84 280.48,-246.82"/>
</g>
<!-- Node11 -->
<g id="node11" class="node">
<title>Node11</title>
<g id="a_node11"><a xlink:href="liveness-broker_8h.html" target="_top" xlink:title=" ">
<polygon fill="white" stroke="black" points="401.37,-190.5 401.37,-220.5 517.37,-220.5 517.37,-190.5 401.37,-190.5"/>
<text text-anchor="start" x="409.37" y="-208.5" font-family="Helvetica,sans-Serif" font-size="10.00">include/cppgc/liveness</text>
<text text-anchor="middle" x="459.37" y="-197.5" font-family="Helvetica,sans-Serif" font-size="10.00">&#45;broker.h</text>
</a>
</g>
</g>
<!-- Node2&#45;&gt;Node11 -->
<g id="edge14" class="edge">
<title>Node2&#45;&gt;Node11</title>
<path fill="none" stroke="midnightblue" d="M327.95,-253.96C356.95,-243.48 393.28,-230.37 420.39,-220.58"/>
<polygon fill="midnightblue" stroke="midnightblue" points="326.64,-250.71 318.43,-257.4 329.02,-257.29 326.64,-250.71"/>
</g>
<!-- Node4 -->
<g id="node4" class="node">
<title>Node4</title>
<g id="a_node4"><a xlink:href="allocation_8h.html" target="_top" xlink:title=" ">
<polygon fill="white" stroke="black" points="21.37,-129 21.37,-148 149.37,-148 149.37,-129 21.37,-129"/>
<text text-anchor="middle" x="85.37" y="-136" font-family="Helvetica,sans-Serif" font-size="10.00">include/cppgc/allocation.h</text>
</a>
</g>
</g>
<!-- Node3&#45;&gt;Node4 -->
<g id="edge3" class="edge">
<title>Node3&#45;&gt;Node4</title>
<path fill="none" stroke="midnightblue" d="M175.84,-185.8C151.49,-173.34 120.65,-157.56 101.99,-148.01"/>
<polygon fill="midnightblue" stroke="midnightblue" points="174.31,-188.96 184.81,-190.4 177.5,-182.72 174.31,-188.96"/>
</g>
<!-- Node3&#45;&gt;Node5 -->
<g id="edge4" class="edge">
<title>Node3&#45;&gt;Node5</title>
<path fill="none" stroke="midnightblue" d="M252.21,-186.13C279.35,-173.62 314.02,-157.64 334.91,-148.01"/>
<polygon fill="midnightblue" stroke="midnightblue" points="250.58,-183.03 242.96,-190.4 253.51,-189.39 250.58,-183.03"/>
</g>
<!-- Node5&#45;&gt;Node6 -->
<g id="edge5" class="edge">
<title>Node5&#45;&gt;Node6</title>
<path fill="none" stroke="midnightblue" d="M316.66,-125.88C280.11,-114.32 224.9,-96.84 192.25,-86.51"/>
<polygon fill="midnightblue" stroke="midnightblue" points="315.84,-129.29 326.43,-128.98 317.95,-122.62 315.84,-129.29"/>
</g>
<!-- Node7 -->
<g id="node7" class="node">
<title>Node7</title>
<g id="a_node7"><a xlink:href="cross-thread-persistent_8h.html" target="_top" xlink:title=" ">
<polygon fill="white" stroke="black" points="206.37,-0.5 206.37,-30.5 310.37,-30.5 310.37,-0.5 206.37,-0.5"/>
<text text-anchor="start" x="214.37" y="-18.5" font-family="Helvetica,sans-Serif" font-size="10.00">include/cppgc/cross</text>
<text text-anchor="middle" x="258.37" y="-7.5" font-family="Helvetica,sans-Serif" font-size="10.00">&#45;thread&#45;persistent.h</text>
</a>
</g>
</g>
<!-- Node5&#45;&gt;Node7 -->
<g id="edge7" class="edge">
<title>Node5&#45;&gt;Node7</title>
<path fill="none" stroke="midnightblue" d="M340.12,-120.63C321.25,-96.59 286.96,-52.92 269.39,-30.54"/>
<polygon fill="midnightblue" stroke="midnightblue" points="337.61,-123.09 346.54,-128.8 343.11,-118.77 337.61,-123.09"/>
</g>
<!-- Node8 -->
<g id="node8" class="node">
<title>Node8</title>
<g id="a_node8"><a xlink:href="v8-cppgc_8h.html" target="_top" xlink:title=" ">
<polygon fill="white" stroke="black" points="324.37,-67.5 324.37,-86.5 422.37,-86.5 422.37,-67.5 324.37,-67.5"/>
<text text-anchor="middle" x="373.37" y="-74.5" font-family="Helvetica,sans-Serif" font-size="10.00">include/v8&#45;cppgc.h</text>
</a>
</g>
</g>
<!-- Node5&#45;&gt;Node8 -->
<g id="edge8" class="edge">
<title>Node5&#45;&gt;Node8</title>
<path fill="none" stroke="midnightblue" d="M359.53,-119.16C363.19,-108.27 367.66,-94.99 370.51,-86.51"/>
<polygon fill="midnightblue" stroke="midnightblue" points="356.1,-118.38 356.23,-128.98 362.74,-120.61 356.1,-118.38"/>
</g>
<!-- Node6&#45;&gt;Node7 -->
<g id="edge6" class="edge">
<title>Node6&#45;&gt;Node7</title>
<path fill="none" stroke="midnightblue" d="M187.24,-62.01C202.07,-52.52 221.61,-40.02 236.45,-30.52"/>
<polygon fill="midnightblue" stroke="midnightblue" points="185.23,-59.14 178.69,-67.48 189,-65.03 185.23,-59.14"/>
</g>
<!-- Node9&#45;&gt;Node4 -->
<g id="edge10" class="edge">
<title>Node9&#45;&gt;Node4</title>
<path fill="none" stroke="midnightblue" d="M82.86,-180.25C83.55,-169.02 84.33,-156.38 84.83,-148.19"/>
<polygon fill="midnightblue" stroke="midnightblue" points="79.36,-180.2 82.24,-190.4 86.34,-180.63 79.36,-180.2"/>
</g>
<!-- Node10&#45;&gt;Node6 -->
<g id="edge13" class="edge">
<title>Node10&#45;&gt;Node6</title>
<path fill="none" stroke="midnightblue" d="M202.41,-116C192.53,-105.86 181.29,-94.33 173.81,-86.66"/>
<polygon fill="midnightblue" stroke="midnightblue" points="200.14,-118.68 209.62,-123.4 205.15,-113.8 200.14,-118.68"/>
</g>
<!-- Node10&#45;&gt;Node7 -->
<g id="edge12" class="edge">
<title>Node10&#45;&gt;Node7</title>
<path fill="none" stroke="midnightblue" d="M231.11,-113.81C233.8,-105.37 236.79,-95.78 239.37,-87 245.07,-67.54 251.07,-44.86 254.76,-30.6"/>
<polygon fill="midnightblue" stroke="midnightblue" points="227.75,-112.81 228.02,-123.4 234.42,-114.96 227.75,-112.81"/>
</g>
<!-- Node11&#45;&gt;Node5 -->
<g id="edge15" class="edge">
<title>Node11&#45;&gt;Node5</title>
<path fill="none" stroke="midnightblue" d="M427.8,-185.14C407.65,-172.79 382.54,-157.39 367.24,-148.01"/>
<polygon fill="midnightblue" stroke="midnightblue" points="426.01,-188.15 436.37,-190.4 429.67,-182.18 426.01,-188.15"/>
</g>
<!-- Node12 -->
<g id="node12" class="node">
<title>Node12</title>
<g id="a_node12"><a xlink:href="prefinalizer-handler_8h.html" target="_top" xlink:title=" ">
<polygon fill="white" stroke="black" points="427.87,-123.5 427.87,-153.5 538.87,-153.5 538.87,-123.5 427.87,-123.5"/>
<text text-anchor="start" x="435.87" y="-141.5" font-family="Helvetica,sans-Serif" font-size="10.00">include/cppgc/internal</text>
<text text-anchor="middle" x="483.37" y="-130.5" font-family="Helvetica,sans-Serif" font-size="10.00">/prefinalizer&#45;handler.h</text>
</a>
</g>
</g>
<!-- Node11&#45;&gt;Node12 -->
<g id="edge16" class="edge">
<title>Node11&#45;&gt;Node12</title>
<path fill="none" stroke="midnightblue" d="M468.05,-180.99C471.44,-171.8 475.22,-161.58 478.17,-153.58"/>
<polygon fill="midnightblue" stroke="midnightblue" points="464.76,-179.8 464.58,-190.4 471.32,-182.23 464.76,-179.8"/>
</g>
<!-- Node13 -->
<g id="node13" class="node">
<title>Node13</title>
<g id="a_node13"><a xlink:href="prefinalizer_8h.html" target="_top" xlink:title=" ">
<polygon fill="white" stroke="black" points="480.87,-67.5 480.87,-86.5 613.87,-86.5 613.87,-67.5 480.87,-67.5"/>
<text text-anchor="middle" x="547.37" y="-74.5" font-family="Helvetica,sans-Serif" font-size="10.00">include/cppgc/prefinalizer.h</text>
</a>
</g>
</g>
<!-- Node11&#45;&gt;Node13 -->
<g id="edge18" class="edge">
<title>Node11&#45;&gt;Node13</title>
<path fill="none" stroke="midnightblue" d="M512.84,-185.82C526.86,-178.21 540.3,-167.85 548.37,-154 560.85,-132.56 554.46,-101.62 550.19,-86.7"/>
<polygon fill="midnightblue" stroke="midnightblue" points="510.98,-182.84 503.6,-190.44 514.11,-189.1 510.98,-182.84"/>
</g>
<!-- Node12&#45;&gt;Node13 -->
<g id="edge17" class="edge">
<title>Node12&#45;&gt;Node13</title>
<path fill="none" stroke="midnightblue" d="M506.17,-116.3C517.16,-106.09 529.72,-94.41 538.06,-86.66"/>
<polygon fill="midnightblue" stroke="midnightblue" points="503.48,-114.03 498.54,-123.4 508.24,-119.15 503.48,-114.03"/>
</g>
<!-- Node14&#45;&gt;Node9 -->
<g id="edge22" class="edge">
<title>Node14&#45;&gt;Node9</title>
<path fill="none" stroke="midnightblue" d="M88.92,-247.4C87.25,-238.37 85.41,-228.41 83.97,-220.58"/>
<polygon fill="midnightblue" stroke="midnightblue" points="85.51,-248.2 90.76,-257.4 92.39,-246.93 85.51,-248.2"/>
</g>
<!-- Node15&#45;&gt;Node5 -->
<g id="edge26" class="edge">
<title>Node15&#45;&gt;Node5</title>
<path fill="none" stroke="midnightblue" d="M401.75,-253.54C389.52,-224.72 365.98,-169.22 356.98,-148.02"/>
<polygon fill="midnightblue" stroke="midnightblue" points="398.57,-255 405.69,-262.84 405.01,-252.27 398.57,-255"/>
</g>
<!-- Node15&#45;&gt;Node11 -->
<g id="edge25" class="edge">
<title>Node15&#45;&gt;Node11</title>
<path fill="none" stroke="midnightblue" d="M422.31,-254.67C430.45,-244.09 440.83,-230.6 448.53,-220.59"/>
<polygon fill="midnightblue" stroke="midnightblue" points="419.43,-252.67 416.11,-262.73 424.98,-256.94 419.43,-252.67"/>
</g>
</g>
</svg>
